<svg width="158" height="50" viewBox="0 0 158 50" fill="none" xmlns="http://www.w3.org/2000/svg">
<path d="M153.062 49.375H4.9375C2.22187 49.375 0 47.1531 0 44.4375V4.9375C0 2.22187 2.22187 0 4.9375 0H153.062C155.778 0 158 2.22187 158 4.9375V44.4375C158 47.1531 155.778 49.375 153.062 49.375Z" fill="white"/>
<path d="M33.3285 24.4407C33.3285 20.6141 36.5379 18.7625 36.6613 18.6391C34.8098 16.0469 32.0942 15.6766 31.1067 15.5532C28.7613 15.3063 26.416 16.911 25.3051 16.911C24.0707 16.911 22.2192 15.5532 20.2442 15.5532C17.652 15.5532 15.3067 17.0344 13.9488 19.3797C11.2332 24.0704 13.2082 30.9829 15.8004 34.8094C17.1582 36.661 18.6395 38.7594 20.6145 38.636C22.5895 38.5125 23.3301 37.4016 25.6754 37.4016C28.0207 37.4016 28.6379 38.636 30.7363 38.636C32.8348 38.636 34.1926 36.7844 35.427 34.9328C36.9082 32.8344 37.5254 30.736 37.5254 30.6125C37.402 30.4891 33.3285 29.0079 33.3285 24.4407Z" fill="#1E2334"/>
<path d="M29.502 13.084C30.4895 11.7262 31.2301 9.99805 31.1067 8.14648C29.6254 8.26992 27.6504 9.13398 26.6629 10.4918C25.6754 11.6027 24.8114 13.4543 25.0582 15.1824C26.6629 15.3059 28.391 14.3184 29.502 13.084Z" fill="#1E2334"/>
<path d="M61.4719 38.389H58.7563L57.275 33.6984H52.0906L50.7328 38.389H48.1406L53.325 22.4656H56.5344L61.4719 38.389ZM56.7812 31.7234L55.4234 27.5265C55.3 27.1562 55.0531 26.0453 54.5594 24.564C54.4359 25.1812 54.1891 26.2921 53.8188 27.5265L52.4609 31.7234H56.7812Z" fill="#1E2334"/>
<path d="M74.6797 32.5875C74.6797 34.5625 74.1859 36.0437 73.075 37.2781C72.0875 38.2656 70.9766 38.7593 69.4953 38.7593C68.0141 38.7593 66.9031 38.2656 66.2859 37.1546V43.2031H63.6938V30.8593C63.6938 29.625 63.6937 28.3906 63.5703 27.0328H65.7922L65.9156 28.8843C66.7797 27.5265 68.0141 26.7859 69.7422 26.7859C71.1 26.7859 72.2109 27.2796 73.075 28.3906C74.1859 29.3781 74.6797 30.7359 74.6797 32.5875ZM72.0875 32.5875C72.0875 31.4765 71.8406 30.489 71.3469 29.8718C70.8531 29.1312 70.1125 28.7609 69.125 28.7609C68.5078 28.7609 67.8906 29.0078 67.3969 29.3781C66.9031 29.7484 66.5328 30.3656 66.4094 30.9828C66.2859 31.3531 66.2859 31.6 66.2859 31.7234V33.6984C66.2859 34.5625 66.5328 35.1796 67.0266 35.7968C67.5203 36.414 68.2609 36.6609 69.0016 36.6609C69.9891 36.6609 70.7297 36.2906 71.2234 35.55C71.8406 34.8093 72.0875 33.8218 72.0875 32.5875Z" fill="#1E2334"/>
<path d="M87.8875 32.5875C87.8875 34.5625 87.3938 36.0437 86.2829 37.2781C85.2954 38.2656 84.1844 38.7593 82.7032 38.7593C81.2219 38.7593 80.111 38.2656 79.4938 37.1546V43.2031H76.9016V30.8593C76.9016 29.625 76.9016 28.3906 76.7782 27.0328H79L79.1235 28.8843C79.9875 27.5265 81.2219 26.7859 82.95 26.7859C84.3079 26.7859 85.4188 27.2796 86.2829 28.3906C87.3938 29.3781 87.8875 30.7359 87.8875 32.5875ZM85.2954 32.5875C85.2954 31.4765 85.0485 30.489 84.5547 29.8718C84.061 29.1312 83.3204 28.7609 82.3329 28.7609C81.7157 28.7609 81.0985 29.0078 80.6047 29.3781C80.111 29.7484 79.7407 30.3656 79.6172 30.9828C79.4938 31.3531 79.4938 31.6 79.4938 31.7234V33.6984C79.4938 34.5625 79.7407 35.1796 80.2344 35.7968C80.7282 36.414 81.4688 36.6609 82.2094 36.6609C83.1969 36.6609 83.9375 36.2906 84.4313 35.55C85.0485 34.8093 85.2954 33.8218 85.2954 32.5875Z" fill="#1E2334"/>
<path d="M102.7 33.9449C102.7 35.3027 102.206 36.4137 101.342 37.2777C100.354 38.2652 98.8732 38.6355 97.0217 38.6355C95.2936 38.6355 93.9357 38.2652 92.9482 37.648L93.5654 35.5496C94.6764 36.1668 95.9107 36.5371 97.2686 36.5371C98.2561 36.5371 98.9967 36.2902 99.4904 35.9199C99.9842 35.4262 100.231 34.9324 100.231 34.1918C100.231 33.5746 99.9842 32.9574 99.6139 32.5871C99.1201 32.0934 98.3795 31.723 97.392 31.3527C94.5529 30.3652 93.1951 28.7605 93.1951 26.7855C93.1951 25.4277 93.6889 24.4402 94.6764 23.5762C95.6639 22.7121 96.8982 22.3418 98.6264 22.3418C100.108 22.3418 101.219 22.5887 102.206 23.0824L101.589 25.1809C100.725 24.6871 99.7373 24.4402 98.5029 24.4402C97.6389 24.4402 96.8982 24.6871 96.4045 25.0574C96.0342 25.4277 95.7873 25.9215 95.7873 26.5387C95.7873 27.1559 96.0342 27.6496 96.5279 28.1434C96.8982 28.5137 97.7623 28.884 98.8732 29.3777C100.231 29.8715 101.219 30.6121 101.959 31.3527C102.329 31.9699 102.7 32.834 102.7 33.9449Z" fill="#1E2334"/>
<path d="M111.094 28.8844H108.255V34.4391C108.255 35.7969 108.748 36.5375 109.736 36.5375C110.23 36.5375 110.6 36.5375 110.847 36.4141L110.97 38.3891C110.477 38.6359 109.859 38.6359 108.995 38.6359C108.008 38.6359 107.144 38.3891 106.65 37.7719C106.033 37.1547 105.786 36.1672 105.786 34.6859V28.8844H104.058V26.9094H105.786V24.8109L108.255 24.0703V26.9094H111.094V28.8844Z" fill="#1E2334"/>
<path d="M123.808 32.5871C123.808 34.3152 123.314 35.7965 122.327 36.9074C121.216 38.0184 119.858 38.6355 118.13 38.6355C116.402 38.6355 115.044 38.0184 114.056 36.9074C113.069 35.7965 112.575 34.4387 112.575 32.7105C112.575 30.9824 113.069 29.5012 114.18 28.3902C115.167 27.2793 116.649 26.6621 118.377 26.6621C120.105 26.6621 121.463 27.2793 122.45 28.3902C123.314 29.5012 123.808 30.859 123.808 32.5871ZM121.092 32.7105C121.092 31.5996 120.846 30.7355 120.352 29.9949C119.858 29.1309 118.994 28.6371 118.006 28.6371C117.019 28.6371 116.155 29.1309 115.661 29.9949C115.167 30.7355 114.921 31.723 114.921 32.7105C114.921 33.8215 115.167 34.6855 115.661 35.4262C116.155 36.2902 117.019 36.784 118.006 36.784C118.994 36.784 119.735 36.2902 120.352 35.4262C120.846 34.6855 121.092 33.698 121.092 32.7105Z" fill="#1E2334"/>
<path d="M132.078 29.1312C131.832 29.1312 131.585 29.0078 131.214 29.0078C130.35 29.0078 129.61 29.3781 129.116 29.9953C128.746 30.6125 128.499 31.3531 128.499 32.2172V38.2656H125.907V30.3656C125.907 29.0078 125.907 27.8969 125.783 26.7859H128.005L128.129 29.0078H128.252C128.499 28.2672 128.993 27.65 129.486 27.1562C130.104 26.7859 130.721 26.5391 131.338 26.5391C131.585 26.5391 131.832 26.5391 131.955 26.5391V29.1312H132.078Z" fill="#1E2334"/>
<path d="M143.435 32.0934C143.435 32.5871 143.435 32.9574 143.311 33.2043H135.658C135.658 34.3152 136.029 35.1793 136.769 35.7965C137.386 36.2902 138.25 36.6605 139.238 36.6605C140.349 36.6605 141.46 36.5371 142.324 36.1668L142.694 37.8949C141.583 38.3887 140.349 38.6355 138.868 38.6355C137.139 38.6355 135.658 38.1418 134.671 37.0309C133.683 36.0434 133.189 34.5621 133.189 32.834C133.189 31.1059 133.683 29.6246 134.547 28.5137C135.535 27.2793 136.893 26.6621 138.621 26.6621C140.225 26.6621 141.583 27.2793 142.324 28.5137C143.188 29.5012 143.435 30.7355 143.435 32.0934ZM141.089 31.4762C141.089 30.7355 140.966 30.1184 140.596 29.5012C140.102 28.7606 139.485 28.3902 138.621 28.3902C137.757 28.3902 137.139 28.7605 136.646 29.3777C136.275 29.8715 136.029 30.6121 135.905 31.3527H141.089V31.4762Z" fill="#1E2334"/>
<path d="M56.0407 12.7141C56.0407 14.0719 55.6704 15.1829 54.8063 15.9235C54.0657 16.5407 52.9547 16.911 51.4735 16.911C50.7329 16.911 50.1157 16.911 49.6219 16.7875V9.13442C50.2391 9.01099 50.9797 9.01099 51.8438 9.01099C53.2016 9.01099 54.1891 9.25786 54.9297 9.87505C55.5469 10.4922 56.0407 11.4797 56.0407 12.7141ZM54.6829 12.7141C54.6829 11.85 54.436 11.1094 53.9422 10.6157C53.4485 10.1219 52.7079 9.87505 51.8438 9.87505C51.4735 9.87505 51.1032 9.87505 50.8563 9.99849V15.8C50.9797 15.8 51.35 15.8 51.7204 15.8C52.7079 15.8 53.4485 15.5532 53.9422 15.0594C54.436 14.5657 54.6829 13.7016 54.6829 12.7141Z" fill="#1E2334"/>
<path d="M62.9531 13.9488C62.9531 14.8129 62.7063 15.5535 62.2125 16.0473C61.7188 16.6645 60.9781 16.9113 60.1141 16.9113C59.25 16.9113 58.6328 16.6645 58.1391 16.0473C57.6453 15.5535 57.3984 14.8129 57.3984 13.9488C57.3984 13.0848 57.6453 12.3441 58.1391 11.8504C58.6328 11.2332 59.3734 10.9863 60.2375 10.9863C61.1016 10.9863 61.7188 11.2332 62.2125 11.8504C62.7063 12.3441 62.9531 13.0848 62.9531 13.9488ZM61.7188 13.9488C61.7188 13.4551 61.5953 12.9613 61.3484 12.591C61.1016 12.0973 60.7313 11.9738 60.2375 11.9738C59.7438 11.9738 59.3734 12.2207 59.1266 12.591C58.8797 12.9613 58.7563 13.4551 58.7563 13.9488C58.7563 14.4426 58.8797 14.9363 59.1266 15.3066C59.3734 15.8004 59.7438 15.9238 60.2375 15.9238C60.7313 15.9238 61.1016 15.677 61.3484 15.1832C61.5953 14.9363 61.7188 14.4426 61.7188 13.9488Z" fill="#1E2334"/>
<path d="M72.4578 11.1094L70.7297 16.7875H69.6187L68.8781 14.3188C68.6312 13.7016 68.5078 13.0844 68.3844 12.4672C68.2609 13.0844 68.1375 13.7016 67.8906 14.3188L67.15 16.7875H66.0391L64.1875 11.1094H65.4219L66.0391 13.825C66.1625 14.4422 66.2859 15.0594 66.4094 15.6766C66.5328 15.1828 66.6563 14.5656 66.9031 13.825L67.6438 11.1094H68.6313L69.3719 13.7016C69.6188 14.3188 69.7422 14.9359 69.8656 15.5531C69.9891 14.9359 70.1125 14.3188 70.2359 13.7016L70.9766 11.1094H72.4578Z" fill="#1E2334"/>
<path d="M78.8766 16.7875H77.6422V13.5782C77.6422 12.5907 77.2719 12.0969 76.5312 12.0969C76.1609 12.0969 75.9141 12.2204 75.6672 12.4672C75.4203 12.7141 75.2969 13.0844 75.2969 13.4547V16.7875H74.0625V12.7141C74.0625 12.2204 74.0625 11.7266 74.0625 11.1094H75.1734V11.9735C75.2969 11.7266 75.5437 11.4797 75.7906 11.2329C76.1609 10.986 76.5312 10.8625 76.9016 10.8625C77.3953 10.8625 77.8891 10.986 78.2594 11.3563C78.7531 11.7266 78.8766 12.3438 78.8766 13.2079V16.7875Z" fill="#1E2334"/>
<path d="M82.333 16.7879H81.0986V8.51758H82.333V16.7879Z" fill="#1E2334"/>
<path d="M89.7393 13.9488C89.7393 14.8129 89.4924 15.5535 88.9986 16.0473C88.5049 16.6645 87.7643 16.9113 86.9002 16.9113C86.0361 16.9113 85.4189 16.6645 84.9252 16.0473C84.4314 15.5535 84.1846 14.8129 84.1846 13.9488C84.1846 13.0848 84.4314 12.3441 84.9252 11.8504C85.4189 11.3566 86.1596 10.9863 87.0236 10.9863C87.8877 10.9863 88.5049 11.2332 88.9986 11.8504C89.4924 12.3441 89.7393 13.0848 89.7393 13.9488ZM88.5049 13.9488C88.5049 13.4551 88.3814 12.9613 88.1346 12.591C87.8877 12.0973 87.5174 11.9738 87.0236 11.9738C86.5299 11.9738 86.1596 12.2207 85.9127 12.591C85.6658 12.9613 85.5424 13.4551 85.5424 13.9488C85.5424 14.4426 85.6658 14.9363 85.9127 15.3066C86.1596 15.8004 86.5299 15.9238 87.0236 15.9238C87.5174 15.9238 87.8877 15.677 88.1346 15.1832C88.3814 14.9363 88.5049 14.4426 88.5049 13.9488Z" fill="#1E2334"/>
<path d="M95.7879 16.7879H94.677L94.5535 16.1707C94.1832 16.6645 93.566 16.9113 92.9488 16.9113C92.4551 16.9113 91.9613 16.7879 91.7145 16.4176C91.4676 16.0473 91.2207 15.677 91.2207 15.3066C91.2207 14.566 91.4676 14.0723 92.0848 13.702C92.702 13.3316 93.4426 13.2082 94.5535 13.2082V13.0848C94.5535 12.3441 94.1832 11.9738 93.4426 11.9738C92.8254 11.9738 92.4551 12.0973 91.9613 12.3441L91.7145 11.4801C92.2082 11.1098 92.8254 10.9863 93.6895 10.9863C95.1707 10.9863 95.9113 11.727 95.9113 13.3316V15.4301C95.7879 16.0473 95.7879 16.4176 95.7879 16.7879ZM94.5535 14.8129V13.9488C93.1957 13.9488 92.4551 14.3191 92.4551 15.0598C92.4551 15.3066 92.5785 15.5535 92.702 15.677C92.8254 15.8004 93.0723 15.9238 93.3191 15.9238C93.566 15.9238 93.8129 15.8004 94.0598 15.677C94.3066 15.5535 94.4301 15.3066 94.5535 15.0598C94.5535 15.0598 94.5535 14.9363 94.5535 14.8129Z" fill="#1E2334"/>
<path d="M102.946 16.7875H101.836V15.9234C101.465 16.6641 100.848 16.9109 99.984 16.9109C99.2434 16.9109 98.7496 16.6641 98.2559 16.1703C97.7621 15.6766 97.6387 14.9359 97.6387 14.0719C97.6387 13.2078 97.8855 12.4672 98.3793 11.85C98.873 11.3563 99.4902 11.1094 100.107 11.1094C100.848 11.1094 101.342 11.3563 101.712 11.85V8.64062H102.946V15.3063C102.946 15.8 102.946 16.2938 102.946 16.7875ZM101.712 14.4422V13.4547C101.712 13.3313 101.712 13.2078 101.712 13.0844C101.589 12.8375 101.465 12.5906 101.218 12.3438C100.971 12.0969 100.725 12.0969 100.354 12.0969C99.8605 12.0969 99.4902 12.3438 99.2434 12.7141C98.9965 13.0844 98.873 13.5781 98.873 14.1953C98.873 14.8125 98.9965 15.1828 99.2434 15.5531C99.4902 15.9234 99.8605 16.1703 100.354 16.1703C100.725 16.1703 101.095 16.0469 101.342 15.6766C101.589 15.1828 101.712 14.8125 101.712 14.4422Z" fill="#1E2334"/>
<path d="M113.686 13.9488C113.686 14.8129 113.439 15.5535 112.945 16.0473C112.451 16.6645 111.711 16.9113 110.846 16.9113C109.982 16.9113 109.365 16.6645 108.871 16.0473C108.378 15.5535 108.131 14.8129 108.131 13.9488C108.131 13.0848 108.378 12.3441 108.871 11.8504C109.365 11.2332 110.106 10.9863 110.97 10.9863C111.834 10.9863 112.451 11.2332 112.945 11.8504C113.439 12.3441 113.686 13.0848 113.686 13.9488ZM112.328 13.9488C112.328 13.4551 112.204 12.9613 111.957 12.591C111.711 12.0973 111.34 11.9738 110.846 11.9738C110.353 11.9738 109.982 12.2207 109.736 12.591C109.489 12.9613 109.365 13.4551 109.365 13.9488C109.365 14.4426 109.489 14.9363 109.736 15.3066C109.982 15.8004 110.353 15.9238 110.846 15.9238C111.34 15.9238 111.711 15.677 111.957 15.1832C112.204 14.9363 112.328 14.4426 112.328 13.9488Z" fill="#1E2334"/>
<path d="M120.475 16.7875H119.241V13.5782C119.241 12.5907 118.87 12.0969 118.13 12.0969C117.759 12.0969 117.513 12.2204 117.266 12.4672C117.019 12.7141 116.895 13.0844 116.895 13.4547V16.7875H115.661V12.7141C115.661 12.2204 115.661 11.7266 115.661 11.1094H116.772V11.9735C116.895 11.7266 117.142 11.4797 117.389 11.2329C117.759 10.986 118.13 10.8625 118.5 10.8625C118.994 10.8625 119.488 10.986 119.858 11.3563C120.352 11.7266 120.475 12.3438 120.475 13.2079V16.7875Z" fill="#1E2334"/>
<path d="M128.869 12.0973H127.511V14.8129C127.511 15.5535 127.758 15.8004 128.252 15.8004C128.499 15.8004 128.622 15.8004 128.869 15.8004V16.7879C128.622 16.9113 128.252 16.9113 127.881 16.9113C127.388 16.9113 127.017 16.7879 126.771 16.4176C126.524 16.1707 126.4 15.5535 126.4 14.9363V12.0973H125.536V11.1098H126.4V10.1223L127.635 9.75195V11.1098H128.992V12.0973H128.869Z" fill="#1E2334"/>
<path d="M135.535 16.7879H134.3V13.5785C134.3 12.591 133.93 12.0973 133.189 12.0973C132.572 12.0973 132.202 12.3441 131.955 12.9613C131.955 13.0848 131.955 13.2082 131.955 13.4551V16.7879H130.721V8.51758H131.955V11.9738C132.325 11.3566 132.943 10.9863 133.683 10.9863C134.177 10.9863 134.671 11.1098 134.918 11.4801C135.288 11.8504 135.535 12.591 135.535 13.3316V16.7879Z" fill="#1E2334"/>
<path d="M142.323 13.7016C142.323 13.9484 142.323 14.0719 142.323 14.3188H138.62C138.62 14.9359 138.867 15.3063 139.114 15.5531C139.484 15.8 139.855 15.9234 140.348 15.9234C140.966 15.9234 141.459 15.8 141.83 15.6766L142.077 16.5406C141.583 16.7875 140.966 16.9109 140.225 16.9109C139.361 16.9109 138.62 16.6641 138.127 16.1703C137.633 15.6766 137.386 14.9359 137.386 14.0719C137.386 13.2078 137.633 12.4672 138.127 11.9734C138.62 11.3563 139.237 11.1094 140.102 11.1094C140.966 11.1094 141.583 11.3563 141.953 11.9734C142.2 12.3438 142.323 12.9609 142.323 13.7016ZM141.212 13.3313C141.212 12.9609 141.089 12.5906 140.966 12.3438C140.719 11.9734 140.472 11.85 139.978 11.85C139.608 11.85 139.237 11.9734 138.991 12.3438C138.744 12.5906 138.62 12.9609 138.62 13.3313H141.212Z" fill="#1E2334"/>
</svg>
