<svg width="158" height="50" viewBox="0 0 158 50" fill="none" xmlns="http://www.w3.org/2000/svg">
<path d="M153.062 49.375H4.9375C2.22187 49.375 0 47.1531 0 44.4375V4.9375C0 2.22187 2.22187 0 4.9375 0H153.062C155.778 0 158 2.22187 158 4.9375V44.4375C158 47.1531 155.778 49.375 153.062 49.375Z" fill="black"/>
<path d="M33.3281 24.4406C33.3281 20.6141 36.5375 18.7625 36.6609 18.6391C34.8094 16.0469 32.0938 15.6766 31.1063 15.5531C28.7609 15.3063 26.4156 16.9109 25.3047 16.9109C24.0703 16.9109 22.2188 15.5531 20.2438 15.5531C17.6516 15.5531 15.3063 17.0344 13.9484 19.3797C11.2328 24.0703 13.2078 30.9828 15.8 34.8094C17.1578 36.6609 18.6391 38.7594 20.6141 38.6359C22.5891 38.5125 23.3297 37.4016 25.675 37.4016C28.0203 37.4016 28.6375 38.6359 30.7359 38.6359C32.8344 38.6359 34.1922 36.7844 35.4266 34.9328C36.9078 32.8344 37.525 30.7359 37.525 30.6125C37.4016 30.4891 33.3281 29.0078 33.3281 24.4406Z" fill="white"/>
<path d="M29.5016 13.0844C30.4891 11.7266 31.2297 9.99843 31.1063 8.14687C29.625 8.2703 27.65 9.13437 26.6625 10.4922C25.675 11.6031 24.811 13.4547 25.0578 15.1828C26.6625 15.3062 28.3907 14.3187 29.5016 13.0844Z" fill="white"/>
<path d="M61.4719 38.3891H58.7563L57.275 33.6984H52.0906L50.7328 38.3891H48.1406L53.325 22.4656H56.5344L61.4719 38.3891ZM56.7812 31.7234L55.4234 27.5266C55.3 27.1562 55.0531 26.0453 54.5594 24.5641C54.4359 25.1812 54.1891 26.2922 53.8188 27.5266L52.4609 31.7234H56.7812Z" fill="white"/>
<path d="M74.6797 32.5875C74.6797 34.5625 74.1859 36.0437 73.075 37.2781C72.0875 38.2656 70.9766 38.7594 69.4953 38.7594C68.0141 38.7594 66.9031 38.2656 66.2859 37.1547V43.2031H63.6938V30.8594C63.6938 29.625 63.6938 28.3906 63.5703 27.0328H65.7922L65.9156 28.8844C66.7797 27.5266 68.0141 26.7859 69.7422 26.7859C71.1 26.7859 72.2109 27.2797 73.075 28.3906C74.1859 29.3781 74.6797 30.7359 74.6797 32.5875ZM72.0875 32.5875C72.0875 31.4766 71.8406 30.4891 71.3469 29.8719C70.8531 29.1312 70.1125 28.7609 69.125 28.7609C68.5078 28.7609 67.8906 29.0078 67.3969 29.3781C66.9031 29.7484 66.5328 30.3656 66.4094 30.9828C66.2859 31.3531 66.2859 31.6 66.2859 31.7234V33.6984C66.2859 34.5625 66.5328 35.1797 67.0266 35.7969C67.5203 36.4141 68.2609 36.6609 69.0016 36.6609C69.9891 36.6609 70.7297 36.2906 71.2234 35.55C71.8406 34.8094 72.0875 33.8219 72.0875 32.5875Z" fill="white"/>
<path d="M87.8875 32.5875C87.8875 34.5625 87.3938 36.0437 86.2829 37.2781C85.2954 38.2656 84.1844 38.7594 82.7032 38.7594C81.2219 38.7594 80.111 38.2656 79.4938 37.1547V43.2031H76.9016V30.8594C76.9016 29.625 76.9016 28.3906 76.7782 27.0328H79L79.1235 28.8844C79.9875 27.5266 81.2219 26.7859 82.95 26.7859C84.3079 26.7859 85.4188 27.2797 86.2829 28.3906C87.3938 29.3781 87.8875 30.7359 87.8875 32.5875ZM85.2954 32.5875C85.2954 31.4766 85.0485 30.4891 84.5547 29.8719C84.061 29.1312 83.3204 28.7609 82.3329 28.7609C81.7157 28.7609 81.0985 29.0078 80.6047 29.3781C80.111 29.7484 79.7407 30.3656 79.6172 30.9828C79.4938 31.3531 79.4938 31.6 79.4938 31.7234V33.6984C79.4938 34.5625 79.7407 35.1797 80.2344 35.7969C80.7282 36.4141 81.4688 36.6609 82.2094 36.6609C83.1969 36.6609 83.9375 36.2906 84.4313 35.55C85.0485 34.8094 85.2954 33.8219 85.2954 32.5875Z" fill="white"/>
<path d="M102.7 33.9453C102.7 35.3031 102.206 36.4141 101.342 37.2781C100.355 38.2656 98.8734 38.6359 97.0218 38.6359C95.2937 38.6359 93.9359 38.2656 92.9484 37.6484L93.5656 35.55C94.6765 36.1672 95.9109 36.5375 97.2687 36.5375C98.2562 36.5375 98.9968 36.2906 99.4906 35.9203C99.9843 35.4265 100.231 34.9328 100.231 34.1922C100.231 33.575 99.9843 32.9578 99.614 32.5875C99.1203 32.0937 98.3796 31.7234 97.3921 31.3531C94.5531 30.3656 93.1953 28.7609 93.1953 26.7859C93.1953 25.4281 93.689 24.4406 94.6765 23.5766C95.664 22.7125 96.8984 22.3422 98.6265 22.3422C100.108 22.3422 101.219 22.5891 102.206 23.0828L101.589 25.1812C100.725 24.6875 99.7375 24.4406 98.5031 24.4406C97.639 24.4406 96.8984 24.6875 96.4046 25.0578C96.0343 25.4281 95.7875 25.9219 95.7875 26.5391C95.7875 27.1562 96.0343 27.65 96.5281 28.1437C96.8984 28.5141 97.7625 28.8844 98.8734 29.3781C100.231 29.8719 101.219 30.6125 101.959 31.3531C102.33 31.9703 102.7 32.8344 102.7 33.9453Z" fill="white"/>
<path d="M111.094 28.8844H108.255V34.4391C108.255 35.7969 108.748 36.5375 109.736 36.5375C110.23 36.5375 110.6 36.5375 110.847 36.4141L110.97 38.3891C110.477 38.6359 109.859 38.6359 108.995 38.6359C108.008 38.6359 107.144 38.3891 106.65 37.7719C106.033 37.1547 105.786 36.1672 105.786 34.6859V28.8844H104.058V26.9094H105.786V24.8109L108.255 24.0703V26.9094H111.094V28.8844Z" fill="white"/>
<path d="M123.808 32.5875C123.808 34.3156 123.314 35.7969 122.327 36.9078C121.216 38.0187 119.858 38.6359 118.13 38.6359C116.402 38.6359 115.044 38.0187 114.056 36.9078C113.069 35.7969 112.575 34.4391 112.575 32.7109C112.575 30.9828 113.069 29.5016 114.18 28.3906C115.167 27.2797 116.648 26.6625 118.377 26.6625C120.105 26.6625 121.463 27.2797 122.45 28.3906C123.314 29.5016 123.808 30.8594 123.808 32.5875ZM121.092 32.7109C121.092 31.6 120.845 30.7359 120.352 29.9953C119.858 29.1312 118.994 28.6375 118.006 28.6375C117.019 28.6375 116.155 29.1312 115.661 29.9953C115.167 30.7359 114.92 31.7234 114.92 32.7109C114.92 33.8219 115.167 34.6859 115.661 35.4266C116.155 36.2906 117.019 36.7844 118.006 36.7844C118.994 36.7844 119.734 36.2906 120.352 35.4266C120.845 34.6859 121.092 33.6984 121.092 32.7109Z" fill="white"/>
<path d="M132.078 29.1312C131.831 29.1312 131.584 29.0078 131.214 29.0078C130.35 29.0078 129.609 29.3781 129.116 29.9953C128.745 30.6125 128.498 31.3531 128.498 32.2172V38.2656H125.906V30.3656C125.906 29.0078 125.906 27.8969 125.783 26.7859H128.005L128.128 29.0078H128.252C128.498 28.2672 128.992 27.65 129.486 27.1562C130.103 26.7859 130.72 26.5391 131.337 26.5391C131.584 26.5391 131.831 26.5391 131.955 26.5391V29.1312H132.078Z" fill="white"/>
<path d="M143.434 32.0937C143.434 32.5875 143.434 32.9578 143.311 33.2047H135.658C135.658 34.3156 136.028 35.1797 136.769 35.7969C137.386 36.2906 138.25 36.6609 139.237 36.6609C140.348 36.6609 141.459 36.5375 142.323 36.1672L142.694 37.8953C141.583 38.3891 140.348 38.6359 138.867 38.6359C137.139 38.6359 135.658 38.1422 134.67 37.0312C133.683 36.0437 133.189 34.5625 133.189 32.8344C133.189 31.1062 133.683 29.625 134.547 28.5141C135.534 27.2797 136.892 26.6625 138.62 26.6625C140.225 26.6625 141.583 27.2797 142.323 28.5141C143.187 29.5016 143.434 30.7359 143.434 32.0937ZM141.089 31.4766C141.089 30.7359 140.966 30.1187 140.595 29.5016C140.102 28.7609 139.484 28.3906 138.62 28.3906C137.756 28.3906 137.139 28.7609 136.645 29.3781C136.275 29.8719 136.028 30.6125 135.905 31.3531H141.089V31.4766Z" fill="white"/>
<path d="M56.0407 12.7141C56.0407 14.0719 55.6704 15.1828 54.8063 15.9234C54.0657 16.5406 52.9547 16.9109 51.4735 16.9109C50.7329 16.9109 50.1157 16.9109 49.6219 16.7875V9.13437C50.2391 9.01093 50.9797 9.01093 51.8438 9.01093C53.2016 9.01093 54.1891 9.25781 54.9297 9.875C55.5469 10.4922 56.0407 11.4797 56.0407 12.7141ZM54.6829 12.7141C54.6829 11.85 54.436 11.1094 53.9422 10.6156C53.4485 10.1219 52.7078 9.875 51.8438 9.875C51.4735 9.875 51.1032 9.875 50.8563 9.99843V15.8C50.9797 15.8 51.35 15.8 51.7204 15.8C52.7079 15.8 53.4485 15.5531 53.9422 15.0594C54.436 14.5656 54.6829 13.7016 54.6829 12.7141Z" fill="white"/>
<path d="M62.9531 13.9484C62.9531 14.8125 62.7063 15.5531 62.2125 16.0469C61.7188 16.6641 60.9781 16.9109 60.1141 16.9109C59.25 16.9109 58.6328 16.6641 58.1391 16.0469C57.6453 15.5531 57.3984 14.8125 57.3984 13.9484C57.3984 13.0844 57.6453 12.3438 58.1391 11.85C58.6328 11.2328 59.3734 10.9859 60.2375 10.9859C61.1016 10.9859 61.7188 11.2328 62.2125 11.85C62.7063 12.3438 62.9531 13.0844 62.9531 13.9484ZM61.7188 13.9484C61.7188 13.4547 61.5953 12.9609 61.3484 12.5906C61.1016 12.0969 60.7313 11.9734 60.2375 11.9734C59.7438 11.9734 59.3734 12.2203 59.1266 12.5906C58.8797 12.9609 58.7563 13.4547 58.7563 13.9484C58.7563 14.4422 58.8797 14.9359 59.1266 15.3063C59.3734 15.8 59.7438 15.9234 60.2375 15.9234C60.7313 15.9234 61.1016 15.6766 61.3484 15.1828C61.5953 14.9359 61.7188 14.4422 61.7188 13.9484Z" fill="white"/>
<path d="M72.4578 11.1094L70.7297 16.7875H69.6187L68.8781 14.3188C68.6312 13.7016 68.5078 13.0844 68.3844 12.4672C68.2609 13.0844 68.1375 13.7016 67.8906 14.3188L67.15 16.7875H66.0391L64.1875 11.1094H65.4219L66.0391 13.825C66.1625 14.4422 66.2859 15.0594 66.4094 15.6766C66.5328 15.1828 66.6563 14.5656 66.9031 13.825L67.6438 11.1094H68.6313L69.3719 13.7016C69.6188 14.3188 69.7422 14.9359 69.8656 15.5531C69.9891 14.9359 70.1125 14.3188 70.2359 13.7016L70.9766 11.1094H72.4578Z" fill="white"/>
<path d="M78.8766 16.7875H77.6422V13.5781C77.6422 12.5906 77.2719 12.0969 76.5312 12.0969C76.1609 12.0969 75.9141 12.2203 75.6672 12.4672C75.4203 12.7141 75.2969 13.0844 75.2969 13.4547V16.7875H74.0625V12.7141C74.0625 12.2203 74.0625 11.7266 74.0625 11.1094H75.1734V11.9734C75.2969 11.7266 75.5437 11.4797 75.7906 11.2328C76.1609 10.9859 76.5312 10.8625 76.9016 10.8625C77.3953 10.8625 77.8891 10.9859 78.2594 11.3563C78.7531 11.7266 78.8766 12.3438 78.8766 13.2078V16.7875Z" fill="white"/>
<path d="M82.3329 16.7875H81.0985V8.5172H82.3329V16.7875Z" fill="white"/>
<path d="M89.7391 13.9484C89.7391 14.8125 89.4922 15.5531 88.9985 16.0469C88.5047 16.6641 87.7641 16.9109 86.9 16.9109C86.036 16.9109 85.4188 16.6641 84.925 16.0469C84.4313 15.5531 84.1844 14.8125 84.1844 13.9484C84.1844 13.0844 84.4313 12.3438 84.925 11.85C85.4188 11.3563 86.1594 10.9859 87.0235 10.9859C87.8875 10.9859 88.5047 11.2328 88.9985 11.85C89.4922 12.3438 89.7391 13.0844 89.7391 13.9484ZM88.5047 13.9484C88.5047 13.4547 88.3813 12.9609 88.1344 12.5906C87.8875 12.0969 87.5172 11.9734 87.0235 11.9734C86.5297 11.9734 86.1594 12.2203 85.9125 12.5906C85.6657 12.9609 85.5422 13.4547 85.5422 13.9484C85.5422 14.4422 85.6657 14.9359 85.9125 15.3063C86.1594 15.8 86.5297 15.9234 87.0235 15.9234C87.5172 15.9234 87.8875 15.6766 88.1344 15.1828C88.3813 14.9359 88.5047 14.4422 88.5047 13.9484Z" fill="white"/>
<path d="M95.7875 16.7875H94.6765L94.5531 16.1703C94.1828 16.6641 93.5656 16.9109 92.9484 16.9109C92.4547 16.9109 91.9609 16.7875 91.714 16.4172C91.4672 16.0469 91.2203 15.6766 91.2203 15.3063C91.2203 14.5656 91.4672 14.0719 92.0843 13.7016C92.7015 13.3313 93.4422 13.2078 94.5531 13.2078V13.0844C94.5531 12.3438 94.1828 11.9734 93.4422 11.9734C92.825 11.9734 92.4546 12.0969 91.9609 12.3438L91.714 11.4797C92.2078 11.1094 92.825 10.9859 93.689 10.9859C95.1703 10.9859 95.9109 11.7266 95.9109 13.3313V15.4297C95.7875 16.0469 95.7875 16.4172 95.7875 16.7875ZM94.5531 14.8125V13.9484C93.1953 13.9484 92.4547 14.3188 92.4547 15.0594C92.4547 15.3063 92.5781 15.5531 92.7015 15.6766C92.825 15.8 93.0718 15.9234 93.3187 15.9234C93.5656 15.9234 93.8125 15.8 94.0593 15.6766C94.3062 15.5531 94.4297 15.3063 94.5531 15.0594C94.5531 15.0594 94.5531 14.9359 94.5531 14.8125Z" fill="white"/>
<path d="M102.947 16.7875H101.836V15.9234C101.466 16.6641 100.848 16.9109 99.9844 16.9109C99.2438 16.9109 98.75 16.6641 98.2563 16.1703C97.7625 15.6766 97.6391 14.9359 97.6391 14.0719C97.6391 13.2078 97.886 12.4672 98.3797 11.85C98.8735 11.3563 99.4907 11.1094 100.108 11.1094C100.848 11.1094 101.342 11.3563 101.713 11.85V8.64062H102.947V15.3063C102.947 15.8 102.947 16.2938 102.947 16.7875ZM101.713 14.4422V13.4547C101.713 13.3313 101.713 13.2078 101.713 13.0844C101.589 12.8375 101.466 12.5906 101.219 12.3438C100.972 12.0969 100.725 12.0969 100.355 12.0969C99.861 12.0969 99.4907 12.3438 99.2438 12.7141C98.9969 13.0844 98.8735 13.5781 98.8735 14.1953C98.8735 14.8125 98.9969 15.1828 99.2438 15.5531C99.4907 15.9234 99.861 16.1703 100.355 16.1703C100.725 16.1703 101.095 16.0469 101.342 15.6766C101.589 15.1828 101.713 14.8125 101.713 14.4422Z" fill="white"/>
<path d="M113.686 13.9484C113.686 14.8125 113.439 15.5531 112.945 16.0469C112.452 16.6641 111.711 16.9109 110.847 16.9109C109.983 16.9109 109.366 16.6641 108.872 16.0469C108.378 15.5531 108.131 14.8125 108.131 13.9484C108.131 13.0844 108.378 12.3438 108.872 11.85C109.366 11.2328 110.106 10.9859 110.97 10.9859C111.834 10.9859 112.452 11.2328 112.945 11.85C113.439 12.3438 113.686 13.0844 113.686 13.9484ZM112.328 13.9484C112.328 13.4547 112.205 12.9609 111.958 12.5906C111.711 12.0969 111.341 11.9734 110.847 11.9734C110.353 11.9734 109.983 12.2203 109.736 12.5906C109.489 12.9609 109.366 13.4547 109.366 13.9484C109.366 14.4422 109.489 14.9359 109.736 15.3063C109.983 15.8 110.353 15.9234 110.847 15.9234C111.341 15.9234 111.711 15.6766 111.958 15.1828C112.205 14.9359 112.328 14.4422 112.328 13.9484Z" fill="white"/>
<path d="M120.475 16.7875H119.241V13.5781C119.241 12.5906 118.87 12.0969 118.13 12.0969C117.759 12.0969 117.513 12.2203 117.266 12.4672C117.019 12.7141 116.895 13.0844 116.895 13.4547V16.7875H115.661V12.7141C115.661 12.2203 115.661 11.7266 115.661 11.1094H116.772V11.9734C116.895 11.7266 117.142 11.4797 117.389 11.2328C117.759 10.9859 118.13 10.8625 118.5 10.8625C118.994 10.8625 119.488 10.9859 119.858 11.3563C120.352 11.7266 120.475 12.3438 120.475 13.2078V16.7875Z" fill="white"/>
<path d="M128.869 12.0969H127.511V14.8125C127.511 15.5531 127.758 15.8 128.252 15.8C128.498 15.8 128.622 15.8 128.869 15.8V16.7875C128.622 16.9109 128.252 16.9109 127.881 16.9109C127.388 16.9109 127.017 16.7875 126.77 16.4172C126.523 16.1703 126.4 15.5531 126.4 14.9359V12.0969H125.536V11.1094H126.4V10.1219L127.634 9.75157V11.1094H128.992V12.0969H128.869Z" fill="white"/>
<path d="M135.534 16.7875H134.3V13.5781C134.3 12.5906 133.93 12.0969 133.189 12.0969C132.572 12.0969 132.202 12.3438 131.955 12.9609C131.955 13.0844 131.955 13.2078 131.955 13.4547V16.7875H130.72V8.5172H131.955V11.9734C132.325 11.3563 132.942 10.9859 133.683 10.9859C134.177 10.9859 134.67 11.1094 134.917 11.4797C135.287 11.85 135.534 12.5906 135.534 13.3313V16.7875Z" fill="white"/>
<path d="M142.323 13.7016C142.323 13.9484 142.323 14.0719 142.323 14.3188H138.62C138.62 14.9359 138.867 15.3063 139.114 15.5531C139.484 15.8 139.855 15.9234 140.348 15.9234C140.966 15.9234 141.459 15.8 141.83 15.6766L142.077 16.5406C141.583 16.7875 140.966 16.9109 140.225 16.9109C139.361 16.9109 138.62 16.6641 138.127 16.1703C137.633 15.6766 137.386 14.9359 137.386 14.0719C137.386 13.2078 137.633 12.4672 138.127 11.9734C138.62 11.3563 139.237 11.1094 140.102 11.1094C140.966 11.1094 141.583 11.3563 141.953 11.9734C142.2 12.3438 142.323 12.9609 142.323 13.7016ZM141.212 13.3313C141.212 12.9609 141.089 12.5906 140.966 12.3438C140.719 11.9734 140.472 11.85 139.978 11.85C139.608 11.85 139.237 11.9734 138.991 12.3438C138.744 12.5906 138.62 12.9609 138.62 13.3313H141.212Z" fill="white"/>
</svg>
