<svg width="107" height="78" viewBox="0 0 107 78" fill="none" xmlns="http://www.w3.org/2000/svg">
<path d="M104.443 76.9828L104.443 76.9829C105.496 77.1123 106.205 76.4822 106.428 75.7017C106.65 74.9234 106.378 74.0372 105.416 73.6217L105.416 73.6216C94.3888 68.8448 88.6225 62.7064 87.8733 56.4641L87.8733 56.4641C87.3173 51.8274 89.8922 47.622 93.3404 46.8139L93.3405 46.8139C97.2272 45.9042 100.513 43.082 102.837 39.1971C105.16 35.3143 106.496 30.4059 106.496 25.4109C106.496 18.9411 103.857 12.7335 99.1537 8.15448C94.4501 3.57501 88.0679 1 81.4104 1C74.1234 1 67.8649 3.92502 63.4219 9.01158C58.9752 14.1024 56.3244 21.3866 56.3242 30.1296C56.4167 55.5033 75.9952 73.5168 104.443 76.9828ZM48.6183 76.9828L48.6188 76.9829C49.6713 77.1123 50.3808 76.4822 50.6036 75.7017C50.8258 74.9234 50.5537 74.0372 49.5922 73.6217L49.5918 73.6216C38.5645 68.8448 32.7982 62.7064 32.0491 56.4641L32.5455 56.4045L32.0491 56.4641C31.4931 51.8274 34.068 47.622 37.5161 46.8139L37.5163 46.8139C41.4029 45.9042 44.689 43.082 47.0128 39.1971C49.3354 35.3143 50.6722 30.4059 50.6722 25.4109C50.6722 18.9411 48.0326 12.7335 43.3294 8.15448C38.6258 3.57501 32.2436 1 25.5861 1C18.2992 1 12.0406 3.92502 7.59767 9.01158C3.15114 14.1022 0.500366 21.386 0.5 30.1285C0.591881 55.5028 20.1705 73.5167 48.6183 76.9828Z" stroke="#00CECC" stroke-opacity="0.28"/>
</svg>
