<svg width="76" height="76" viewBox="0 0 76 76" fill="none" xmlns="http://www.w3.org/2000/svg">
<ellipse opacity="0.3" cx="49" cy="48" rx="22" ry="21" fill="#EAFFFF"/>
<path fill-rule="evenodd" clip-rule="evenodd" d="M15.6431 23.6765H52.3568V53.684H15.6431V23.6765Z" fill="#ECEFF1"/>
<path fill-rule="evenodd" clip-rule="evenodd" d="M49.9745 23.6765H52.3568V53.684H49.9745V23.6765Z" fill="#DEDEDE"/>
<path fill-rule="evenodd" clip-rule="evenodd" d="M21.6056 33.7547H29.8928C30.3925 33.7547 30.8 34.1622 30.8 34.6619V52.4043H20.6984V34.6619C20.6984 34.1622 21.1059 33.7547 21.6056 33.7547Z" fill="#DEDEDE"/>
<path fill-rule="evenodd" clip-rule="evenodd" d="M28.6226 34.6619V52.4043H30.8V34.6619C30.8 34.1622 30.3925 33.7547 29.8928 33.7547H27.7154C28.2151 33.7547 28.6226 34.1622 28.6226 34.6619Z" fill="#D1D1D1"/>
<path fill-rule="evenodd" clip-rule="evenodd" d="M11.9537 52.4042H56.0464C56.1667 52.4045 56.2819 52.4523 56.367 52.5374C56.452 52.6224 56.4999 52.7376 56.5001 52.8579V56.0464C56.4999 56.1667 56.452 56.2819 56.367 56.3669C56.2819 56.4519 56.1667 56.4998 56.0464 56.5H11.9537C11.8334 56.4998 11.7182 56.4519 11.6332 56.3669C11.5482 56.2819 11.5003 56.1666 11.5001 56.0464V52.8579C11.5003 52.7376 11.5481 52.6224 11.6331 52.5373C11.7181 52.4523 11.8334 52.4044 11.9537 52.4042Z" fill="#DEDEDE"/>
<path fill-rule="evenodd" clip-rule="evenodd" d="M56.5 54.4521V56.0463C56.4998 56.1666 56.4519 56.2818 56.3669 56.3668C56.2818 56.4519 56.1666 56.4997 56.0463 56.4999H11.9537C11.8334 56.4997 11.7182 56.4518 11.6332 56.3668C11.5482 56.2818 11.5003 56.1666 11.5001 56.0463V54.4521H56.5Z" fill="#D1D1D1"/>
<path fill-rule="evenodd" clip-rule="evenodd" d="M11.8791 23.6765L17.9739 11.9878C18.1342 11.6803 18.4316 11.5 18.7784 11.5H49.2218C49.5686 11.5 49.866 11.6803 50.0263 11.9878L56.1211 23.6765C56.1211 26.7308 53.6452 29.2068 50.5908 29.2068C47.5365 29.2068 45.0606 26.7308 45.0606 23.6765C45.0606 26.7308 42.5847 29.2068 39.5304 29.2068C36.476 29.2068 34.0002 26.7308 34.0002 23.6765C34.0002 26.7308 31.5242 29.2068 28.47 29.2068C25.4157 29.2068 22.9397 26.7308 22.9397 23.6765C22.9397 26.7308 20.4638 29.2068 17.4094 29.2068C14.3551 29.2068 11.8791 26.7308 11.8791 23.6765Z" fill="#F2961D"/>
<path fill-rule="evenodd" clip-rule="evenodd" d="M17.4093 29.2068C20.4637 29.2068 22.9396 26.7308 22.9396 23.6765H11.879C11.879 26.1133 13.4549 28.1819 15.6431 28.9188C16.2123 29.1101 16.8089 29.2074 17.4093 29.2068ZM34 23.6765C34 26.7308 36.4758 29.2068 39.5302 29.2068C42.5845 29.2068 45.0604 26.7308 45.0604 23.6765H34Z" fill="#FFA92C"/>
<path fill-rule="evenodd" clip-rule="evenodd" d="M56.121 23.6765L50.0262 11.9878C49.8659 11.6803 49.5685 11.5 49.2217 11.5H41.8515L45.0605 23.6765C45.0605 26.7308 47.5364 29.2067 50.5907 29.2067C51.1912 29.2074 51.7877 29.1101 52.3569 28.9188C54.5451 28.1819 56.121 26.1133 56.121 23.6765ZM28.4698 29.2067C31.524 29.2067 34 26.7308 34 23.6765V11.5H26.1485L22.9395 23.6765C22.9395 26.7308 25.4155 29.2067 28.4698 29.2067Z" fill="#F2961D"/>
<path fill-rule="evenodd" clip-rule="evenodd" d="M45.0604 23.6765C45.0604 26.7308 47.5363 29.2068 50.5906 29.2068C51.1911 29.2074 51.7876 29.1101 52.3568 28.9188C54.545 28.1818 56.1209 26.1133 56.1209 23.6765H45.0604ZM28.4698 29.2068C31.524 29.2068 34 26.7308 34 23.6765H22.9395C22.9395 26.7308 25.4155 29.2068 28.4698 29.2068Z" fill="#FFA92C"/>
<path fill-rule="evenodd" clip-rule="evenodd" d="M32.8393 33.7547H48.4424C48.7522 33.7547 49.0049 34.0073 49.0049 34.3172V46.5049C49.0049 46.8148 48.7522 47.0674 48.4424 47.0674H32.8393C32.5295 47.0674 32.2768 46.8148 32.2768 46.5049V34.3172C32.2769 34.0073 32.5295 33.7547 32.8393 33.7547Z" fill="#DBFFFF"/>
<path fill-rule="evenodd" clip-rule="evenodd" d="M47.5049 33.7547H48.4424C48.7522 33.7547 49.0049 34.0073 49.0049 34.3172V46.5049C49.0049 46.8148 48.7522 47.0674 48.4424 47.0674H47.5049C47.8147 47.0674 48.0674 46.8148 48.0674 46.5049V34.3172C48.0674 34.0073 47.8147 33.7547 47.5049 33.7547Z" fill="#00CECC"/>
<path d="M40.6408 45.249C43.3127 45.249 45.4788 43.0829 45.4788 40.411C45.4788 37.7391 43.3127 35.573 40.6408 35.573C37.9689 35.573 35.8028 37.7391 35.8028 40.411C35.8028 43.0829 37.9689 45.249 40.6408 45.249Z" fill="#00CECC"/>
<path fill-rule="evenodd" clip-rule="evenodd" d="M40.6409 35.573C43.3128 35.573 45.4788 37.739 45.4788 40.411C45.4788 43.083 43.3128 45.249 40.6409 45.249C40.4429 45.249 40.2478 45.2368 40.0561 45.2137C42.4521 44.925 44.3092 42.885 44.3092 40.411C44.3092 37.937 42.4522 35.8971 40.0561 35.6083C40.2501 35.5849 40.4454 35.5731 40.6409 35.573Z" fill="#00CECC"/>
<path fill-rule="evenodd" clip-rule="evenodd" d="M37.7047 41.2081C37.3394 40.8427 37.3394 40.2502 37.7047 39.8849C38.0701 39.5195 38.6625 39.5195 39.0279 39.8849L39.7254 40.5824L42.2865 38.258C42.6681 37.9108 43.2589 37.9386 43.6061 38.3202C43.9533 38.7017 43.9255 39.2925 43.5439 39.6397L40.3596 42.5295L40.3545 42.5347C39.9891 42.9001 39.3966 42.9001 39.0313 42.5347L37.7047 41.2081Z" fill="white"/>
</svg>
