<svg width="158" height="50" viewBox="0 0 158 50" fill="none" xmlns="http://www.w3.org/2000/svg">
<path d="M153.062 49.375H4.9375C2.22187 49.375 0 47.1531 0 44.4375V4.9375C0 2.22187 2.22187 0 4.9375 0H153.062C155.778 0 158 2.22187 158 4.9375V44.4375C158 47.1531 155.778 49.375 153.062 49.375Z" fill="white"/>
<path fill-rule="evenodd" clip-rule="evenodd" d="M12.0967 24.1937V11.2328C12.0967 10.4922 12.7139 9.875 13.3311 9.875C13.9482 9.875 14.1951 9.99844 14.5654 10.2453L38.3889 23.3297C38.8826 23.5766 39.1295 23.9469 39.1295 24.3172C39.1295 24.6875 38.8826 25.0578 38.3889 25.3047L14.5654 38.3891C14.3186 38.5125 13.9482 38.7594 13.3311 38.7594C12.7139 38.7594 12.0967 38.1422 12.0967 37.4016V24.1937Z" fill="url(#paint0_linear_3168_6156)"/>
<path fill-rule="evenodd" clip-rule="evenodd" d="M27.5262 24.3172L13.084 9.875C13.2074 9.875 13.2074 9.875 13.3309 9.875C13.948 9.875 14.1949 9.99844 14.5652 10.2453L32.0934 19.8734L27.5262 24.3172Z" fill="url(#paint1_linear_3168_6156)"/>
<path fill-rule="evenodd" clip-rule="evenodd" d="M31.9701 28.6379L27.5264 24.1941L32.0936 19.627L38.3889 23.0832C38.8826 23.3301 39.1295 23.7004 39.1295 24.0707C39.1295 24.441 38.8826 24.8113 38.3889 25.0582L31.9701 28.6379Z" fill="url(#paint2_linear_3168_6156)"/>
<path fill-rule="evenodd" clip-rule="evenodd" d="M13.208 38.5121L27.5268 24.1934L31.9705 28.6371L14.5658 38.1418C14.1955 38.3887 13.9486 38.5121 13.208 38.5121C13.3314 38.5121 13.3314 38.5121 13.208 38.5121Z" fill="url(#paint3_linear_3168_6156)"/>
<path fill-rule="evenodd" clip-rule="evenodd" d="M87.7636 41.8453C87.1464 41.3516 86.6527 40.4875 86.4058 39.9938L88.3808 39.1297C88.5043 39.3766 88.7511 39.7469 88.998 40.1172C89.4918 40.6109 90.2324 41.1047 90.973 41.1047C91.7136 41.1047 92.5777 40.7344 93.0714 40.1172C93.4417 39.5 93.6886 38.8828 93.6886 38.0187V37.2781C92.2074 39.1297 89.1214 38.8828 87.3933 36.9078C85.5417 34.9328 85.5417 31.6 87.3933 29.625C89.2449 27.7734 91.9605 27.5266 93.5652 29.2547V28.3906H95.6636V37.6484C95.6636 39.9937 94.7995 41.3516 93.6886 42.2156C92.948 42.8328 91.8371 43.0797 90.8496 43.0797C89.7386 42.9563 88.6277 42.5859 87.7636 41.8453ZM139.484 42.3391L141.582 37.4016L137.879 28.8844H139.978L142.57 34.9328L145.162 28.8844H147.26L141.582 42.3391H139.484ZM129.485 37.6484C128.868 37.0312 128.621 36.1672 128.621 35.3031C128.621 34.5625 128.868 33.8219 129.362 33.3281C130.226 32.4641 131.46 32.0938 132.818 32.0938C133.682 32.0938 134.423 32.2172 135.04 32.5875C135.04 31.1063 133.806 30.4891 132.818 30.4891C131.954 30.4891 131.09 30.9828 130.72 31.8469L128.868 31.1063C129.239 30.2422 130.226 28.6375 132.695 28.6375C133.929 28.6375 135.164 29.0078 135.904 29.8719C136.645 30.7359 136.892 31.7234 136.892 33.0812V38.2656H134.793V37.4016C134.546 37.7719 134.053 38.0188 133.682 38.2656C133.189 38.5125 132.571 38.6359 131.954 38.6359C131.214 38.5125 130.103 38.2656 129.485 37.6484ZM63.6933 33.2047C63.6933 30.7359 65.5449 28.0203 68.8777 28.0203C72.0871 28.0203 74.0621 30.7359 74.0621 33.2047C74.0621 35.6734 72.2105 38.3891 68.8777 38.3891C65.5449 38.3891 63.6933 35.6734 63.6933 33.2047ZM74.8027 33.2047C74.8027 30.7359 76.6542 28.0203 79.9871 28.0203C83.1964 28.0203 85.1714 30.7359 85.1714 33.2047C85.1714 35.6734 83.3199 38.3891 79.9871 38.3891C76.7777 38.3891 74.8027 35.6734 74.8027 33.2047ZM49.7449 35.9203C46.6589 32.8344 46.7824 27.7734 49.8683 24.5641C51.473 22.9594 53.448 22.2188 55.5464 22.2188C57.5214 22.2188 59.4964 22.9594 60.9777 24.4406L59.4964 26.0453C57.2746 23.8234 53.6949 23.9469 51.5964 26.1688C49.3746 28.5141 49.3746 32.0938 51.5964 34.4391C53.8183 36.7844 57.5214 36.9078 59.7433 34.5625C60.4839 33.8219 60.7308 32.8344 60.8542 31.8469H55.6699V29.625H62.9527C63.0761 30.1188 63.0761 30.7359 63.0761 31.3531C63.0761 33.2047 62.3355 35.0563 61.1011 36.2906C59.7433 37.6484 57.7683 38.3891 55.7933 38.3891C53.5714 38.2656 51.3496 37.525 49.7449 35.9203ZM101.959 36.7844C100.107 34.8094 100.107 31.4766 101.959 29.3781C103.811 27.4031 106.896 27.4031 108.625 29.3781C109.242 29.9953 109.612 30.8594 109.982 31.7234L103.193 34.5625C103.564 35.4266 104.428 36.1672 105.662 36.1672C106.773 36.1672 107.514 35.7969 108.254 34.6859L110.106 35.9203C109.859 36.1672 109.612 36.4141 109.489 36.6609C107.39 38.7594 103.811 38.7594 101.959 36.7844ZM114.796 38.2656V24.5641H119.24C121.832 24.5641 123.931 26.4156 123.931 28.6375C123.931 30.8594 122.079 32.7109 119.734 32.7109H117.018V38.1422H114.796V38.2656ZM125.165 38.2656V24.5641H127.264V38.2656H125.165ZM97.2683 38.0187V22.7125H99.4902V38.0187H97.2683ZM134.917 34.1922C134.423 33.8219 133.682 33.6984 132.942 33.6984C131.461 33.6984 130.596 34.4391 130.596 35.3031C130.596 36.1672 131.461 36.6609 132.325 36.6609C133.559 36.6609 134.917 35.6734 134.917 34.1922ZM71.7168 33.2047C71.7168 31.7234 70.7292 30.1188 68.8777 30.1188C67.0261 30.1188 66.0386 31.7234 66.0386 33.2047C66.0386 34.6859 67.0261 36.2906 68.8777 36.2906C70.6058 36.2906 71.7168 34.6859 71.7168 33.2047ZM82.8261 33.2047C82.8261 31.7234 81.8386 30.1188 79.9871 30.1188C78.1355 30.1188 77.148 31.7234 77.148 33.2047C77.148 34.6859 78.1355 36.2906 79.9871 36.2906C81.8386 36.2906 82.8261 34.6859 82.8261 33.2047ZM93.8121 34.0687C93.8121 33.9453 93.8121 33.8219 93.9355 33.6984C93.9355 33.575 93.9355 33.3281 93.9355 33.2047C93.9355 33.0813 93.9355 32.8344 93.9355 32.7109V32.5875C93.9355 32.4641 93.8121 32.2172 93.8121 32.0938C93.4417 30.8594 92.3308 29.9953 91.2199 29.9953C89.7386 29.9953 88.5043 31.4766 88.5043 33.0812C88.5043 34.8094 89.7386 36.1672 91.3433 36.1672C92.3308 36.2906 93.3183 35.4266 93.8121 34.0687ZM102.823 32.9578L107.39 30.9828C106.896 30.1187 106.156 29.8719 105.539 29.8719C103.687 29.9953 102.576 31.9703 102.823 32.9578ZM121.709 28.7609C121.709 27.5266 120.721 26.6625 119.364 26.6625H116.895V30.9828H119.487C120.721 30.9828 121.709 29.9953 121.709 28.7609Z" fill="#1E2334"/>
<path fill-rule="evenodd" clip-rule="evenodd" d="M141.09 39.8713H140.966V39.7471H141.09H140.966V39.8713H141.09Z" fill="#1E2334"/>
<path fill-rule="evenodd" clip-rule="evenodd" d="M141.336 39.8713C141.336 39.7471 141.336 39.7471 141.336 39.8713C141.212 39.7471 141.212 39.7471 141.336 39.8713C141.212 39.8713 141.212 39.8713 141.336 39.8713ZM141.336 39.7471C141.336 39.8713 141.336 39.8713 141.336 39.7471C141.212 39.8713 141.336 39.8713 141.336 39.7471C141.336 39.7471 141.212 39.7471 141.336 39.7471Z" fill="#1E2334"/>
<path fill-rule="evenodd" clip-rule="evenodd" d="M141.46 39.7471H141.336H141.46V39.8713V39.7471Z" fill="#1E2334"/>
<path d="M48.0176 12.4674C48.0176 10.2455 49.6223 8.8877 51.5973 8.8877C52.9551 8.8877 53.8192 9.50488 54.4363 10.3689L53.4488 10.9861C53.0785 10.4924 52.4613 10.1221 51.5973 10.1221C50.2395 10.1221 49.252 11.1096 49.252 12.5908C49.252 14.0721 50.2395 15.0596 51.5973 15.0596C52.3379 15.0596 52.9551 14.6893 53.202 14.4424V13.3314H51.227V12.2205H54.5598V14.8127C53.9426 15.5533 52.9551 16.0471 51.7207 16.0471C49.6223 16.0471 48.0176 14.5658 48.0176 12.4674Z" fill="#1E2334"/>
<path d="M56.041 15.9232V9.01074H60.7316V10.1217H57.152V11.8498H60.6082V12.9607H57.152V14.9357H60.7316V16.0467L56.041 15.9232Z" fill="#1E2334"/>
<path d="M64.1873 15.9232V10.1217H62.0889V9.01074H67.5201V10.1217H65.4217V15.9232H64.1873Z" fill="#1E2334"/>
<path d="M71.7168 15.9232V9.01074H72.9512V15.9232H71.7168Z" fill="#1E2334"/>
<path d="M76.284 15.9232V10.1217H74.1855V9.01074H79.6168V10.1217H77.5184V15.9232H76.284Z" fill="#1E2334"/>
<path d="M83.5674 12.4674C83.5674 10.3689 85.0486 8.8877 87.1471 8.8877C89.2455 8.8877 90.7268 10.3689 90.7268 12.4674C90.7268 14.5658 89.2455 16.0471 87.1471 16.0471C85.0486 16.0471 83.5674 14.4424 83.5674 12.4674ZM89.3689 12.4674C89.3689 10.9861 88.5049 9.99863 87.0236 9.99863C85.6658 9.99863 84.6783 11.1096 84.6783 12.4674C84.6783 13.9486 85.5424 14.9361 87.0236 14.9361C88.5049 14.9361 89.3689 13.8252 89.3689 12.4674Z" fill="#1E2334"/>
<path d="M96.898 15.9232L93.3184 10.9857V15.9232H92.084V9.01074H93.3184L96.898 13.8248V9.01074H98.1324V15.9232H96.898Z" fill="#1E2334"/>
<defs>
<linearGradient id="paint0_linear_3168_6156" x1="20.0799" y1="8.11429" x2="26.9902" y2="36.4937" gradientUnits="userSpaceOnUse">
<stop stop-color="#006884"/>
<stop offset="1" stop-color="#8AD1D0"/>
</linearGradient>
<linearGradient id="paint1_linear_3168_6156" x1="11.653" y1="12.1509" x2="30.4846" y2="22.3314" gradientUnits="userSpaceOnUse">
<stop stop-color="#24BBB6"/>
<stop offset="1" stop-color="#DBE692"/>
</linearGradient>
<linearGradient id="paint2_linear_3168_6156" x1="33.321" y1="29.1565" x2="33.321" y2="19.3451" gradientUnits="userSpaceOnUse">
<stop stop-color="#FCC072"/>
<stop offset="1" stop-color="#F58A5B"/>
</linearGradient>
<linearGradient id="paint3_linear_3168_6156" x1="15.2999" y1="41.0662" x2="30.1762" y2="25.9263" gradientUnits="userSpaceOnUse">
<stop stop-color="#712B8F"/>
<stop offset="1" stop-color="#EA1D27"/>
</linearGradient>
</defs>
</svg>
