<svg width="158" height="50" viewBox="0 0 158 50" fill="none" xmlns="http://www.w3.org/2000/svg">
<path d="M153.062 49.375H4.9375C2.22187 49.375 0 47.1531 0 44.4375V4.9375C0 2.22187 2.22187 0 4.9375 0H153.062C155.778 0 158 2.22187 158 4.9375V44.4375C158 47.1531 155.778 49.375 153.062 49.375Z" fill="black"/>
<path fill-rule="evenodd" clip-rule="evenodd" d="M12.0968 24.1937V11.2328C12.0968 10.4922 12.714 9.875 13.3312 9.875C13.9484 9.875 14.1953 9.99844 14.5656 10.2453L38.389 23.3297C38.8828 23.5766 39.1296 23.9469 39.1296 24.3172C39.1296 24.6875 38.8828 25.0578 38.389 25.3047L14.5656 38.3891C14.3187 38.5125 13.9484 38.7594 13.3312 38.7594C12.714 38.7594 12.0968 38.1422 12.0968 37.4016V24.1937Z" fill="url(#paint0_linear_3140_5528)"/>
<path fill-rule="evenodd" clip-rule="evenodd" d="M27.5266 24.3172L13.0844 9.875C13.2078 9.875 13.2078 9.875 13.3313 9.875C13.9485 9.875 14.1953 9.99844 14.5657 10.2453L32.0938 19.8734L27.5266 24.3172Z" fill="url(#paint1_linear_3140_5528)"/>
<path fill-rule="evenodd" clip-rule="evenodd" d="M31.9703 28.6375L27.5265 24.1938L32.0937 19.6266L38.389 23.0828C38.8828 23.3297 39.1296 23.7 39.1296 24.0703C39.1296 24.4406 38.8828 24.8109 38.389 25.0578L31.9703 28.6375Z" fill="url(#paint2_linear_3140_5528)"/>
<path fill-rule="evenodd" clip-rule="evenodd" d="M13.2079 38.5125L27.5266 24.1937L31.9704 28.6375L14.5657 38.1422C14.1954 38.3891 13.9485 38.5125 13.2079 38.5125C13.3313 38.5125 13.3313 38.5125 13.2079 38.5125Z" fill="url(#paint3_linear_3140_5528)"/>
<path fill-rule="evenodd" clip-rule="evenodd" d="M87.764 41.8453C87.1468 41.3516 86.6531 40.4875 86.4062 39.9938L88.3812 39.1297C88.5047 39.3766 88.7515 39.7469 88.9984 40.1172C89.4921 40.6109 90.2328 41.1047 90.9734 41.1047C91.714 41.1047 92.5781 40.7344 93.0718 40.1172C93.4421 39.5 93.689 38.8828 93.689 38.0187V37.2781C92.2078 39.1297 89.1218 38.8828 87.3937 36.9078C85.5421 34.9328 85.5421 31.6 87.3937 29.625C89.2453 27.7734 91.9609 27.5266 93.5656 29.2547V28.3906H95.664V37.6484C95.664 39.9937 94.7999 41.3516 93.689 42.2156C92.9484 42.8328 91.8375 43.0797 90.85 43.0797C89.739 42.9563 88.6281 42.5859 87.764 41.8453ZM139.484 42.3391L141.583 37.4016L137.88 28.8844H139.978L142.57 34.9328L145.162 28.8844H147.261L141.583 42.3391H139.484ZM129.486 37.6484C128.869 37.0312 128.622 36.1672 128.622 35.3031C128.622 34.5625 128.869 33.8219 129.362 33.3281C130.226 32.4641 131.461 32.0938 132.819 32.0938C133.683 32.0938 134.423 32.2172 135.041 32.5875C135.041 31.1063 133.806 30.4891 132.819 30.4891C131.955 30.4891 131.091 30.9828 130.72 31.8469L128.869 31.1063C129.239 30.2422 130.227 28.6375 132.695 28.6375C133.93 28.6375 135.164 29.0078 135.905 29.8719C136.645 30.7359 136.892 31.7234 136.892 33.0812V38.2656H134.794V37.4016C134.547 37.7719 134.053 38.0188 133.683 38.2656C133.189 38.5125 132.572 38.6359 131.955 38.6359C131.214 38.5125 130.103 38.2656 129.486 37.6484ZM63.6937 33.2047C63.6937 30.7359 65.5453 28.0203 68.8781 28.0203C72.0875 28.0203 74.0625 30.7359 74.0625 33.2047C74.0625 35.6734 72.2109 38.3891 68.8781 38.3891C65.5453 38.3891 63.6937 35.6734 63.6937 33.2047ZM74.8031 33.2047C74.8031 30.7359 76.6546 28.0203 79.9875 28.0203C83.1968 28.0203 85.1718 30.7359 85.1718 33.2047C85.1718 35.6734 83.3203 38.3891 79.9875 38.3891C76.7781 38.3891 74.8031 35.6734 74.8031 33.2047ZM49.7453 35.9203C46.6593 32.8344 46.7828 27.7734 49.8687 24.5641C51.4734 22.9594 53.4484 22.2188 55.5468 22.2188C57.5218 22.2188 59.4968 22.9594 60.9781 24.4406L59.4968 26.0453C57.275 23.8234 53.6953 23.9469 51.5968 26.1688C49.375 28.5141 49.375 32.0938 51.5968 34.4391C53.8187 36.7844 57.5218 36.9078 59.7437 34.5625C60.4843 33.8219 60.7312 32.8344 60.8546 31.8469H55.6703V29.625H62.9531C63.0765 30.1188 63.0765 30.7359 63.0765 31.3531C63.0765 33.2047 62.3359 35.0563 61.1015 36.2906C59.7437 37.6484 57.7687 38.3891 55.7937 38.3891C53.5718 38.2656 51.35 37.525 49.7453 35.9203ZM101.959 36.7844C100.108 34.8094 100.108 31.4766 101.959 29.3781C103.811 27.4031 106.897 27.4031 108.625 29.3781C109.242 29.9953 109.612 30.8594 109.983 31.7234L103.194 34.5625C103.564 35.4266 104.428 36.1672 105.662 36.1672C106.773 36.1672 107.514 35.7969 108.255 34.6859L110.106 35.9203C109.859 36.1672 109.612 36.4141 109.489 36.6609C107.391 38.7594 103.811 38.7594 101.959 36.7844ZM114.797 38.2656V24.5641H119.241C121.833 24.5641 123.931 26.4156 123.931 28.6375C123.931 30.8594 122.08 32.7109 119.734 32.7109H117.019V38.1422H114.797V38.2656ZM125.166 38.2656V24.5641H127.264V38.2656H125.166ZM97.2687 38.0187V22.7125H99.4906V38.0187H97.2687ZM134.917 34.1922C134.423 33.8219 133.683 33.6984 132.942 33.6984C131.461 33.6984 130.597 34.4391 130.597 35.3031C130.597 36.1672 131.461 36.6609 132.325 36.6609C133.559 36.6609 134.917 35.6734 134.917 34.1922ZM71.7171 33.2047C71.7171 31.7234 70.7296 30.1188 68.8781 30.1188C67.0265 30.1188 66.039 31.7234 66.039 33.2047C66.039 34.6859 67.0265 36.2906 68.8781 36.2906C70.6062 36.2906 71.7171 34.6859 71.7171 33.2047ZM82.8265 33.2047C82.8265 31.7234 81.839 30.1188 79.9875 30.1188C78.1359 30.1188 77.1484 31.7234 77.1484 33.2047C77.1484 34.6859 78.1359 36.2906 79.9875 36.2906C81.839 36.2906 82.8265 34.6859 82.8265 33.2047ZM93.8125 34.0687C93.8125 33.9453 93.8125 33.8219 93.9359 33.6984C93.9359 33.575 93.9359 33.3281 93.9359 33.2047C93.9359 33.0813 93.9359 32.8344 93.9359 32.7109V32.5875C93.9359 32.4641 93.8125 32.2172 93.8125 32.0938C93.4421 30.8594 92.3312 29.9953 91.2203 29.9953C89.739 29.9953 88.5047 31.4766 88.5047 33.0812C88.5047 34.8094 89.739 36.1672 91.3437 36.1672C92.3312 36.2906 93.3187 35.4266 93.8125 34.0687ZM102.823 32.9578L107.391 30.9828C106.897 30.1187 106.156 29.8719 105.539 29.8719C103.687 29.9953 102.576 31.9703 102.823 32.9578ZM121.709 28.7609C121.709 27.5266 120.722 26.6625 119.364 26.6625H116.895V30.9828H119.487C120.722 30.9828 121.709 29.9953 121.709 28.7609Z" fill="white"/>
<path fill-rule="evenodd" clip-rule="evenodd" d="M141.09 39.8711H140.966V39.7469H141.09H140.966V39.8711H141.09Z" fill="white"/>
<path fill-rule="evenodd" clip-rule="evenodd" d="M141.336 39.8711C141.336 39.7469 141.336 39.7469 141.336 39.8711C141.212 39.7469 141.212 39.7469 141.336 39.8711C141.212 39.8711 141.212 39.8711 141.336 39.8711ZM141.336 39.7469C141.336 39.8711 141.336 39.8711 141.336 39.7469C141.212 39.8711 141.336 39.8711 141.336 39.7469C141.336 39.7469 141.212 39.7469 141.336 39.7469Z" fill="white"/>
<path fill-rule="evenodd" clip-rule="evenodd" d="M141.46 39.7469H141.336H141.46V39.8711V39.7469Z" fill="white"/>
<path d="M48.0172 12.4672C48.0172 10.2453 49.6218 8.8875 51.5968 8.8875C52.9547 8.8875 53.8187 9.50469 54.4359 10.3688L53.4484 10.9859C53.0781 10.4922 52.4609 10.1219 51.5968 10.1219C50.239 10.1219 49.2515 11.1094 49.2515 12.5906C49.2515 14.0719 50.239 15.0594 51.5968 15.0594C52.3375 15.0594 52.9547 14.6891 53.2015 14.4422V13.3313H51.2265V12.2203H54.5593V14.8125C53.9422 15.5531 52.9547 16.0469 51.7203 16.0469C49.6218 16.0469 48.0172 14.5656 48.0172 12.4672Z" fill="white"/>
<path d="M56.0406 15.9234V9.01093H60.7312V10.1219H57.1515V11.85H60.6078V12.9609H57.1515V14.9359H60.7312V16.0469L56.0406 15.9234Z" fill="white"/>
<path d="M64.1875 15.9234V10.1219H62.089V9.01093H67.5203V10.1219H65.4218V15.9234H64.1875Z" fill="white"/>
<path d="M71.7172 15.9234V9.01093H72.9516V15.9234H71.7172Z" fill="white"/>
<path d="M76.2844 15.9234V10.1219H74.186V9.01093H79.6172V10.1219H77.5188V15.9234H76.2844Z" fill="white"/>
<path d="M83.5672 12.4672C83.5672 10.3688 85.0485 8.8875 87.1469 8.8875C89.2454 8.8875 90.7266 10.3688 90.7266 12.4672C90.7266 14.5656 89.2454 16.0469 87.1469 16.0469C85.0485 16.0469 83.5672 14.4422 83.5672 12.4672ZM89.3688 12.4672C89.3688 10.9859 88.5047 9.99844 87.0235 9.99844C85.6657 9.99844 84.6782 11.1094 84.6782 12.4672C84.6782 13.9484 85.5422 14.9359 87.0235 14.9359C88.5047 14.9359 89.3688 13.825 89.3688 12.4672Z" fill="white"/>
<path d="M96.8985 15.9234L93.3188 10.9859V15.9234H92.0844V9.01093H93.3188L96.8985 13.825V9.01093H98.1328V15.9234H96.8985Z" fill="white"/>
<defs>
<linearGradient id="paint0_linear_3140_5528" x1="20.08" y1="8.11429" x2="26.9903" y2="36.4937" gradientUnits="userSpaceOnUse">
<stop stop-color="#006884"/>
<stop offset="1" stop-color="#8AD1D0"/>
</linearGradient>
<linearGradient id="paint1_linear_3140_5528" x1="11.6534" y1="12.1509" x2="30.485" y2="22.3314" gradientUnits="userSpaceOnUse">
<stop stop-color="#24BBB6"/>
<stop offset="1" stop-color="#DBE692"/>
</linearGradient>
<linearGradient id="paint2_linear_3140_5528" x1="33.3212" y1="29.1561" x2="33.3212" y2="19.3448" gradientUnits="userSpaceOnUse">
<stop stop-color="#FCC072"/>
<stop offset="1" stop-color="#F58A5B"/>
</linearGradient>
<linearGradient id="paint3_linear_3140_5528" x1="15.2997" y1="41.0665" x2="30.1761" y2="25.9267" gradientUnits="userSpaceOnUse">
<stop stop-color="#712B8F"/>
<stop offset="1" stop-color="#EA1D27"/>
</linearGradient>
</defs>
</svg>
