<svg width="24" height="24" viewBox="0 0 24 24" fill="none" xmlns="http://www.w3.org/2000/svg">
<g clip-path="url(#clip0_3213_6412)">
<path d="M12.0004 14.1004C11.7245 14.1008 11.4512 14.0468 11.1962 13.9414C10.9413 13.836 10.7096 13.6814 10.5145 13.4863C10.3194 13.2912 10.1648 13.0595 10.0594 12.8045C9.95399 12.5496 9.89996 12.2763 9.90039 12.0004C9.90039 10.8757 10.8004 9.90039 12.0004 9.90039C13.1251 9.90039 14.1004 10.8004 14.1004 12.0004C14.1004 13.1251 13.1251 14.1004 12.0004 14.1004Z" fill="white"/>
<path fill-rule="evenodd" clip-rule="evenodd" d="M14.5509 6.90039H9.45094C8.85094 6.97566 8.55094 7.05094 8.32512 7.12512C8.02512 7.20039 7.80039 7.35094 7.57566 7.57566C7.39785 7.75348 7.31385 7.9313 7.2113 8.14621C7.18512 8.20294 7.15675 8.26294 7.12512 8.32512C7.11421 8.36003 7.10003 8.39712 7.08585 8.43639C7.0073 8.65021 6.90039 8.94366 6.90039 9.45094V14.5509C6.97566 15.1509 7.05094 15.4509 7.12512 15.6746C7.20039 15.9757 7.35094 16.2004 7.57566 16.4251C7.75348 16.604 7.9313 16.6869 8.14621 16.7895C8.20294 16.8157 8.26294 16.844 8.32512 16.8757C8.36003 16.8866 8.39712 16.9008 8.43639 16.9149C8.65021 16.9935 8.94366 17.1004 9.45094 17.1004H14.5509C15.1509 17.0251 15.4509 16.9498 15.6746 16.8757C15.9757 16.8004 16.2004 16.6498 16.4251 16.4251C16.604 16.2473 16.6869 16.0695 16.7895 15.8546C16.8157 15.7978 16.844 15.7378 16.8757 15.6757C16.8866 15.6408 16.9008 15.6037 16.9149 15.5644C16.9935 15.3506 17.1004 15.0571 17.1004 14.5498V9.45094C17.0251 8.85094 16.9498 8.55094 16.8757 8.3273C16.8004 8.02621 16.6498 7.80148 16.4251 7.57675C16.2473 7.39894 16.0695 7.31494 15.8546 7.21239C15.7946 7.18435 15.735 7.15563 15.6757 7.12621C15.6408 7.1153 15.6037 7.10112 15.5644 7.08694C15.3506 7.00839 15.0571 6.90148 14.5498 6.90148L14.5509 6.90039ZM12.0004 8.77566C11.576 8.77247 11.1553 8.8537 10.7626 9.01463C10.3699 9.17555 10.0131 9.41296 9.71304 9.71304C9.41296 10.0131 9.17555 10.3699 9.01463 10.7626C8.8537 11.1553 8.77247 11.576 8.77566 12.0004C8.77247 12.4248 8.8537 12.8455 9.01463 13.2382C9.17555 13.6309 9.41296 13.9877 9.71304 14.2877C10.0131 14.5878 10.3699 14.8252 10.7626 14.9862C11.1553 15.1471 11.576 15.2283 12.0004 15.2251C12.4248 15.2283 12.8455 15.1471 13.2382 14.9862C13.6309 14.8252 13.9877 14.5878 14.2877 14.2877C14.5878 13.9877 14.8252 13.6309 14.9862 13.2382C15.1471 12.8455 15.2283 12.4248 15.2251 12.0004C15.2283 11.576 15.1471 11.1553 14.9862 10.7626C14.8252 10.3699 14.5878 10.0131 14.2877 9.71304C13.9877 9.41296 13.6309 9.17555 13.2382 9.01463C12.8455 8.8537 12.4248 8.77247 12.0004 8.77566ZM16.0509 8.70039C16.0509 8.89945 15.9719 9.09035 15.8311 9.23111C15.6904 9.37186 15.4994 9.45094 15.3004 9.45094C15.1013 9.45094 14.9104 9.37186 14.7697 9.23111C14.6289 9.09035 14.5498 8.89945 14.5498 8.70039C14.5498 8.50133 14.6289 8.31043 14.7697 8.16968C14.9104 8.02892 15.1013 7.94985 15.3004 7.94985C15.4994 7.94985 15.6904 8.02892 15.8311 8.16968C15.9719 8.31043 16.0509 8.50133 16.0509 8.70039Z" fill="white"/>
<path fill-rule="evenodd" clip-rule="evenodd" d="M0 0H24V24H0V0ZM9.44945 5.77527H14.5495C15.2258 5.85055 15.6753 5.92473 16.0505 6.07527C16.5 6.3 16.8 6.44945 17.1742 6.82473C17.5495 7.2 17.7742 7.57527 17.9247 7.94945C18.0753 8.32473 18.2247 8.77527 18.2247 9.44945V14.5495C18.1495 15.2258 18.0753 15.6753 17.9247 16.0505C17.7 16.5 17.5495 16.8 17.1753 17.1742C16.8 17.5495 16.4247 17.7742 16.0505 17.9247C15.5764 18.1264 15.0658 18.2285 14.5505 18.2247H9.45055C8.77418 18.1495 8.32473 18.0753 7.94945 17.9247C7.5 17.7 7.2 17.5495 6.82582 17.1753C6.50012 16.8567 6.24449 16.4736 6.07527 16.0505C5.87364 15.5764 5.77154 15.0658 5.77527 14.5505V9.45055C5.85055 8.77418 5.92473 8.32473 6.07527 7.94945C6.3 7.5 6.44945 7.2 6.82473 6.82582C7.2 6.44945 7.57527 6.22582 7.94945 6.07527C8.42365 5.87364 8.93419 5.77154 9.44945 5.77527Z" fill="white"/>
</g>
<defs>
<clipPath id="clip0_3213_6412">
<rect width="24" height="24" rx="12" fill="white"/>
</clipPath>
</defs>
</svg>
