<svg width="76" height="76" viewBox="0 0 76 76" fill="none" xmlns="http://www.w3.org/2000/svg">
<ellipse cx="49" cy="48" rx="22" ry="21" fill="#E0FFFF"/>
<g clip-path="url(#clip0_3146_5970)">
<path d="M57.9475 53.2917L50.8343 20.4305L48.6988 56.0565H55.7171C57.1719 56.0565 58.2553 54.7135 57.9475 53.2917Z" fill="#E2E2E2"/>
<path d="M52.8667 53.921V29.8196L50.8343 20.4305L48.6988 56.0565H50.7312C51.9057 56.0565 52.8667 55.0955 52.8667 53.921Z" fill="#BABABA"/>
<path d="M48.7955 18.2949H12.1355C10.961 18.2949 10 19.256 10 20.4305V53.921C10 55.0955 10.961 56.0565 12.1355 56.0565H48.7955C49.9701 56.0565 50.9311 55.0955 50.9311 53.921V20.4305C50.9312 19.256 49.9701 18.2949 48.7955 18.2949Z" fill="#EFEFEF"/>
<path d="M11.9356 53.921V20.4305C11.9356 19.256 12.8966 18.2949 14.0711 18.2949H12.1355C10.961 18.2949 10 19.256 10 20.4305V53.921C10 55.0955 10.961 56.0565 12.1355 56.0565H14.0711C12.8966 56.0565 11.9356 55.0955 11.9356 53.921Z" fill="#E2E2E2"/>
<path d="M38.8635 37.3337L36.2877 34.0486C30.2553 29.1726 21.1949 33.4709 21.1949 41.2609C21.1949 46.381 25.3455 50.5315 30.4654 50.5315C35.5854 50.5315 39.736 46.3809 39.736 41.2609C39.7361 39.8568 39.4223 38.5264 38.8635 37.3337Z" fill="#00CECC"/>
<path d="M23.1305 41.261C23.1305 36.4708 26.7637 32.5295 31.4248 32.0415C25.9128 31.4736 21.195 35.7971 21.195 41.261C21.195 46.748 25.9398 51.0513 31.4334 50.4814C26.7682 49.9974 23.1305 46.0541 23.1305 41.261Z" fill="#02C3C1"/>
<path d="M28.994 45.0695L26.2652 41.5221C25.5758 40.6262 25.7435 39.3414 26.6393 38.6522C27.5353 37.9632 28.8199 38.1305 29.5093 39.0265L30.7008 40.5754L36.3606 33.9635C37.0955 33.1051 38.3878 33.0048 39.2462 33.7396C40.1047 34.4747 40.205 35.7665 39.47 36.6252L32.1708 45.1525C31.3264 46.1388 29.786 46.0992 28.994 45.0695Z" fill="#FFA92C"/>
<path d="M39.3156 33.8054L32.1708 42.1524C31.3267 43.1384 29.786 43.0992 28.994 42.0694L26.4744 38.7939C25.7257 39.5068 25.6206 40.6845 26.2652 41.5221L28.994 45.0695C29.784 46.0967 31.3242 46.1416 32.1708 45.1526L39.47 36.6253C40.184 35.791 40.1075 34.5496 39.3156 33.8054Z" fill="#F2961D"/>
<path d="M48.7955 18.2949H12.1355C10.961 18.2949 10 19.256 10 20.4305V26.6929H50.9312V20.4305C50.9312 19.256 49.9701 18.2949 48.7955 18.2949Z" fill="#00CECC"/>
<path d="M14.0723 18.2949H12.1355C10.961 18.2949 10 19.256 10 20.4305V26.6929H11.9368V20.4305C11.9368 19.256 12.8978 18.2949 14.0723 18.2949Z" fill="#02C3C1"/>
<path d="M19.2412 22.4939H16.8643C16.2455 22.4939 15.7393 21.9876 15.7393 21.3689V13.0685C15.7393 12.4498 16.2455 11.9435 16.8643 11.9435H19.2413C19.8601 11.9435 20.3663 12.4498 20.3663 13.0685V21.3689C20.3662 21.9876 19.86 22.4939 19.2412 22.4939ZM44.0669 22.4939H41.6898C41.0711 22.4939 40.5648 21.9876 40.5648 21.3689V13.0685C40.5648 12.4498 41.0711 11.9435 41.6898 11.9435H44.0669C44.6856 11.9435 45.1919 12.4498 45.1919 13.0685V21.3689C45.1919 21.9876 44.6856 22.4939 44.0669 22.4939ZM31.6541 22.4939H29.2771C28.6583 22.4939 28.1521 21.9876 28.1521 21.3689V13.0685C28.1521 12.4498 28.6583 11.9435 29.2771 11.9435H31.6541C32.2728 11.9435 32.7791 12.4498 32.7791 13.0685V21.3689C32.7791 21.9876 32.2728 22.4939 31.6541 22.4939Z" fill="#FFCF65"/>
<path d="M17.6748 21.3326V13.1049C17.6748 12.4662 18.1974 11.9435 18.8362 11.9435H16.9007C16.2619 11.9435 15.7393 12.4662 15.7393 13.1049V21.3326C15.7393 21.9713 16.2618 22.494 16.9007 22.494H18.8362C18.1975 22.4939 17.6748 21.9713 17.6748 21.3326ZM42.5005 21.3326V13.1049C42.5005 12.4662 43.0231 11.9435 43.6619 11.9435H41.7263C41.0876 11.9435 40.5649 12.4662 40.5649 13.1049V21.3326C40.5649 21.9713 41.0875 22.494 41.7263 22.494H43.6619C43.0231 22.4939 42.5005 21.9713 42.5005 21.3326ZM30.0876 21.3326V13.1049C30.0876 12.4662 30.6103 11.9435 31.249 11.9435H29.3134C28.6747 11.9435 28.1521 12.4662 28.1521 13.1049V21.3326C28.1521 21.9713 28.6747 22.494 29.3134 22.494H31.249C30.6103 22.4939 30.0876 21.9713 30.0876 21.3326Z" fill="#FFB450"/>
</g>
<defs>
<clipPath id="clip0_3146_5970">
<rect width="48" height="48" fill="white" transform="translate(10 10)"/>
</clipPath>
</defs>
</svg>
