<svg width="76" height="76" viewBox="0 0 76 76" fill="none" xmlns="http://www.w3.org/2000/svg">
<ellipse cx="49" cy="48" rx="22" ry="21" fill="#E0FFFF"/>
<g clip-path="url(#clip0_3146_5989)">
<path d="M42.2461 26.7801L44.6883 31.9236C44.8131 32.1959 45.0031 32.4333 45.2416 32.6146C45.4801 32.7959 45.7596 32.9156 46.0555 32.963L51.4728 33.7815C51.818 33.85 52.138 34.0108 52.399 34.2468C52.66 34.4829 52.8521 34.7852 52.9548 35.1217C53.0576 35.4583 53.0671 35.8164 52.9825 36.1579C52.8979 36.4994 52.7222 36.8116 52.4742 37.0612L48.5846 40.9997C48.3679 41.2231 48.2069 41.4943 48.1145 41.7915C48.0222 42.0887 48.0012 42.4035 48.0532 42.7103L48.9793 48.299C49.0524 48.6385 49.028 48.9917 48.9088 49.3178C48.7896 49.6439 48.5806 49.9297 48.3058 50.142C48.0311 50.3544 47.7019 50.4846 47.3562 50.5177C47.0106 50.5508 46.6626 50.4854 46.3526 50.3291L41.4574 47.6552C41.201 47.5143 40.9132 47.4405 40.6207 47.4405C40.3282 47.4405 40.0404 47.5143 39.784 47.6552L34.8897 50.3299C34.5795 50.4866 34.2314 50.5522 33.8855 50.5192C33.5396 50.4861 33.2101 50.3559 32.9352 50.1434C32.6603 49.9309 32.4512 49.6449 32.332 49.3185C32.2129 48.9921 32.1887 48.6386 32.2621 48.299L33.184 42.7103C33.236 42.4035 33.215 42.0887 33.1227 41.7915C33.0304 41.4943 32.8694 41.2231 32.6527 40.9997L28.763 37.0612C28.515 36.8116 28.3394 36.4994 28.2548 36.1579C28.1701 35.8164 28.1797 35.4583 28.2824 35.1217C28.3852 34.7852 28.5773 34.4829 28.8382 34.2468C29.0992 34.0108 29.4193 33.85 29.7644 33.7815L35.1818 32.963C35.4776 32.9156 35.7572 32.7959 35.9956 32.6146C36.2341 32.4333 36.4242 32.1959 36.549 31.9236L38.9912 26.7801C39.1298 26.4639 39.3575 26.1948 39.6465 26.0059C39.9355 25.817 40.2733 25.7164 40.6186 25.7164C40.9639 25.7164 41.3017 25.817 41.5907 26.0059C41.8798 26.1948 42.1075 26.4639 42.2461 26.7801Z" fill="#F3D55B"/>
<path d="M48.5903 40.9981C48.3733 41.2219 48.2117 41.4934 48.1183 41.7908C48.0249 42.0883 48.0023 42.4035 48.0524 42.7112L48.9793 48.2974C49.0524 48.6375 49.0278 48.9913 48.9084 49.3181C48.789 49.6448 48.5797 49.9311 48.3045 50.144C48.0294 50.3568 47.6996 50.4876 47.3534 50.521C47.0071 50.5545 46.6584 50.4894 46.3476 50.3332L41.4566 47.6552C40.9352 47.3738 40.3062 47.3738 39.7848 47.6552L34.8938 50.3365C34.583 50.4927 34.2343 50.5578 33.888 50.5243C33.5418 50.4909 33.212 50.3602 32.9369 50.1473C32.6617 49.9344 32.4524 49.6481 32.333 49.3214C32.2136 48.9946 32.189 48.6408 32.2621 48.3007L32.469 47.0676C44.7586 39.6359 42.8469 29.5641 41.7297 26.1131C41.9481 26.2952 42.1236 26.5252 42.2428 26.7834L44.6841 31.931C44.8124 32.2017 45.0044 32.4372 45.2437 32.6174C45.483 32.7976 45.7624 32.917 46.0579 32.9655L51.4703 33.7848C51.8153 33.8531 52.1353 34.0137 52.3962 34.2495C52.6571 34.4853 52.8492 34.7874 52.9519 35.1237C53.0547 35.46 53.0643 35.8179 52.9797 36.1593C52.8952 36.5006 52.7196 36.8126 52.4717 37.0621L48.5903 40.9981Z" fill="#F0C419"/>
<path d="M27.8502 10.8466L29.8041 14.9655C30.0086 15.4058 30.4182 15.7161 30.8974 15.7931L35.2306 16.4477C35.5067 16.5025 35.7627 16.6311 35.9715 16.8198C36.1803 17.0086 36.334 17.2504 36.4163 17.5196C36.4986 17.7887 36.5063 18.0752 36.4388 18.3484C36.3712 18.6216 36.2308 18.8714 36.0326 19.0712L32.9241 22.221C32.7508 22.3997 32.6221 22.6168 32.5483 22.8546C32.4745 23.0925 32.4578 23.3443 32.4996 23.5898L33.237 28.0588C33.2951 28.3302 33.2754 28.6126 33.1799 28.8733C33.0845 29.134 32.9173 29.3625 32.6976 29.5322C32.4779 29.702 32.2147 29.8062 31.9383 29.8328C31.662 29.8593 31.3837 29.8072 31.1357 29.6825L27.2196 27.5448C27.0147 27.4317 26.7845 27.3723 26.5505 27.3723C26.3165 27.3723 26.0862 27.4317 25.8814 27.5448L21.9661 29.6841C21.7181 29.8089 21.4398 29.861 21.1634 29.8344C20.8871 29.8078 20.6239 29.7036 20.4042 29.5339C20.1845 29.3641 20.0173 29.1357 19.9219 28.875C19.8264 28.6143 19.8067 28.3319 19.8648 28.0604L20.6022 23.5914C20.6439 23.346 20.6273 23.0941 20.5535 22.8563C20.4797 22.6185 20.351 22.4014 20.1777 22.2226L17.0684 19.0712C16.8702 18.8714 16.7298 18.6216 16.6622 18.3484C16.5946 18.0752 16.6024 17.7887 16.6847 17.5196C16.7669 17.2504 16.9207 17.0086 17.1294 16.8198C17.3382 16.6311 17.5943 16.5025 17.8703 16.4477L22.2036 15.7931C22.4396 15.7551 22.6627 15.6598 22.8534 15.5156C23.044 15.3713 23.1962 15.1824 23.2968 14.9655L25.2508 10.8507C25.3617 10.5987 25.5434 10.3843 25.7739 10.2336C26.0044 10.0829 26.2738 10.0025 26.5491 10.002C26.8245 10.0016 27.0941 10.0812 27.3251 10.2311C27.5561 10.3811 27.7385 10.5949 27.8502 10.8466Z" fill="#F3D55B"/>
<path d="M32.9241 22.2201C32.7505 22.3992 32.6212 22.6164 32.5465 22.8543C32.4718 23.0923 32.4537 23.3444 32.4938 23.5906L33.2386 28.0596C33.297 28.3316 33.2774 28.6145 33.1819 28.8758C33.0864 29.1371 32.919 29.3661 32.699 29.5364C32.479 29.7067 32.2154 29.8113 31.9385 29.8381C31.6616 29.865 31.3827 29.813 31.1341 29.6883L27.2188 27.5448C27.0134 27.434 26.7838 27.376 26.5505 27.376C26.3172 27.376 26.0875 27.434 25.8822 27.5448L21.9694 29.6899C21.7207 29.8147 21.4419 29.8667 21.165 29.8398C20.8881 29.8129 20.6244 29.7083 20.4044 29.538C20.1844 29.3678 20.017 29.1388 19.9215 28.8775C19.8261 28.6162 19.8064 28.3332 19.8648 28.0612L20.0303 27.0747C29.8621 21.1277 28.331 13.072 27.4372 10.3112C27.6135 10.4568 27.7542 10.6405 27.851 10.8474L29.8008 14.9655C30.0094 15.405 30.4199 15.7145 30.8999 15.7931L35.229 16.4485C35.505 16.5031 35.761 16.6316 35.9697 16.8202C36.1785 17.0088 36.3322 17.2505 36.4144 17.5196C36.4966 17.7887 36.5043 18.075 36.4366 18.3481C36.3689 18.6212 36.2284 18.8708 36.0301 19.0703L32.9241 22.2201Z" fill="#F0C419"/>
<path d="M47.6883 46.3807L53.8786 41.2C54.3703 40.7871 55.0022 40.5793 55.643 40.62C56.2839 40.6607 56.8844 40.9466 57.32 41.4184C57.7556 41.8902 57.9927 42.5116 57.9822 43.1536C57.9717 43.7956 57.7143 44.409 57.2635 44.8662L46.9352 55.3848C46.3522 55.9761 45.5638 56.3199 44.7338 56.3448H29.7876C28.7302 56.3464 27.6827 56.5486 26.7007 56.9407L24.069 58H10V56.3448C10 56.3448 14.1379 53.0345 15.7931 51.3793C22.4138 44.7586 27.3545 43.931 30.6648 43.931C32.0059 43.9262 33.3062 44.3919 34.3393 45.2469C34.6232 45.4728 34.9774 45.5928 35.3407 45.5862H43.8648C44.3626 45.6568 44.8443 45.8137 45.2883 46.0497C45.4166 46.1407 45.5382 46.24 45.6524 46.3476C45.9727 46.6737 46.2061 47.075 46.331 47.5145L47.6883 46.3807Z" fill="#F9C795"/>
<path d="M48.0607 47.8869C48.0927 48.3363 48.0313 48.7874 47.8803 49.2119C47.7294 49.6363 47.4921 50.0249 47.1835 50.3531C46.8695 50.6789 46.4927 50.9378 46.076 51.1142C45.6593 51.2906 45.2111 51.3807 44.7586 51.3793H35.6552C35.4357 51.3793 35.2252 51.2921 35.07 51.1369C34.9148 50.9817 34.8276 50.7712 34.8276 50.5517C34.8276 50.3322 34.9148 50.1217 35.07 49.9665C35.2252 49.8113 35.4357 49.7241 35.6552 49.7241H44.7586C44.987 49.7267 45.2134 49.6824 45.4241 49.5942C45.6347 49.506 45.8251 49.3756 45.9835 49.211C46.2913 48.88 46.4469 48.4364 46.4138 47.9862C46.399 47.827 46.3713 47.6692 46.331 47.5145C46.3228 47.5145 47.6883 46.3807 47.6883 46.3807C47.9068 46.8549 48.0334 47.3655 48.0607 47.8869Z" fill="#F0785A"/>
<path d="M47.9986 12.1517L49.1382 14.5517C49.2574 14.8091 49.4965 14.9912 49.7763 15.0367L52.3046 15.419C52.465 15.4518 52.6137 15.5273 52.7348 15.6375C52.856 15.7478 52.9452 15.8886 52.993 16.0453C53.0408 16.202 53.0454 16.3687 53.0064 16.5277C52.9674 16.6868 52.8862 16.8324 52.7713 16.9492L50.9581 18.7865C50.7528 18.9975 50.6601 19.2946 50.7098 19.5851L51.1393 22.1928C51.1732 22.3512 51.1617 22.5159 51.1061 22.668C51.0504 22.8201 50.9529 22.9534 50.8248 23.0524C50.6966 23.1515 50.5431 23.2123 50.3819 23.2279C50.2207 23.2434 50.0584 23.2131 49.9137 23.1404L47.6303 21.8916C47.5107 21.826 47.3765 21.7916 47.2401 21.7916C47.1037 21.7916 46.9695 21.826 46.8499 21.8916L44.5658 23.1404C44.4211 23.2131 44.2587 23.2434 44.0975 23.2279C43.9363 23.2123 43.7828 23.1515 43.6547 23.0524C43.5265 22.9534 43.429 22.8201 43.3734 22.668C43.3177 22.5159 43.3062 22.3512 43.3401 22.1928L43.7705 19.5851C43.8201 19.2946 43.7274 18.9975 43.5222 18.7865L41.709 16.9492C41.5941 16.8324 41.5129 16.6867 41.474 16.5276C41.435 16.3684 41.4397 16.2017 41.4876 16.045C41.5354 15.8883 41.6247 15.7475 41.746 15.6373C41.8673 15.5271 42.016 15.4517 42.1766 15.419L44.704 15.0367C44.9845 14.9912 45.2237 14.8099 45.3421 14.5517L46.4817 12.1517C46.5461 12.0041 46.6521 11.8785 46.7869 11.7904C46.9216 11.7022 47.0791 11.6552 47.2401 11.6552C47.4012 11.6552 47.5587 11.7022 47.6934 11.7904C47.8281 11.8785 47.9342 12.0041 47.9986 12.1517Z" fill="#F3D55B"/>
<path d="M50.9597 18.784C50.8589 18.8885 50.7839 19.0151 50.7408 19.1538C50.6977 19.2925 50.6876 19.4393 50.7115 19.5826L51.1443 22.1895C51.1785 22.3482 51.167 22.5134 51.1113 22.6659C51.0556 22.8184 50.9579 22.9521 50.8295 23.0514C50.7011 23.1508 50.5472 23.2118 50.3855 23.2274C50.2239 23.243 50.0612 23.2125 49.9161 23.1396L47.6304 21.8883C47.5106 21.8235 47.3767 21.7896 47.2406 21.7896C47.1044 21.7896 46.9705 21.8235 46.8508 21.8883L44.5683 23.1396C44.4232 23.2125 44.2605 23.243 44.0989 23.2274C43.9373 23.2118 43.7833 23.1508 43.6549 23.0514C43.5265 22.9521 43.4288 22.8184 43.3731 22.6659C43.3174 22.5134 43.306 22.3482 43.3401 22.1895L43.437 21.6143C49.1713 18.1467 48.2792 13.4469 47.7578 11.8364C47.8597 11.9219 47.9416 12.0287 47.9978 12.1492L49.1366 14.5517C49.2582 14.8083 49.4982 14.9887 49.7779 15.0342L52.3029 15.4165C52.4633 15.4493 52.6119 15.5247 52.733 15.6349C52.8541 15.745 52.9433 15.8857 52.9912 16.0423C53.039 16.1988 53.0438 16.3654 53.005 16.5244C52.9661 16.6834 52.8851 16.829 52.7705 16.9459L50.9597 18.784Z" fill="#F0C419"/>
</g>
<defs>
<clipPath id="clip0_3146_5989">
<rect width="48" height="48" fill="white" transform="translate(10 10)"/>
</clipPath>
</defs>
</svg>
