<svg width="76" height="76" viewBox="0 0 76 76" fill="none" xmlns="http://www.w3.org/2000/svg">
<ellipse cx="49" cy="48" rx="22" ry="21" fill="#E0FFFF"/>
<path d="M34 21.0047C31.7047 21.0047 29.4593 21.6745 27.5391 22.9319C25.6189 24.1892 24.1072 25.9796 23.1895 28.0834C22.2718 30.1872 21.9879 32.5131 22.3726 34.7759C22.7573 37.0387 23.7938 39.1401 25.3552 40.8225L24.1352 45.3739C24.0631 45.6425 24.0723 45.9266 24.1616 46.19C24.251 46.4535 24.4164 46.6845 24.6371 46.8539C24.8578 47.0233 25.1237 47.1235 25.4013 47.1417C25.6789 47.1599 25.9557 47.0954 26.1966 46.9563L30.9695 44.2C32.5913 44.6311 34.2863 44.7112 35.9415 44.435C37.5967 44.1588 39.1739 43.5326 40.5677 42.5983C41.9616 41.6639 43.1401 40.4429 44.0245 39.0168C44.9088 37.5907 45.4787 35.9923 45.6961 34.3284C45.9135 32.6645 45.7734 30.9733 45.2851 29.3679C44.7968 27.7624 43.9716 26.2797 42.8645 25.0186C41.7575 23.7575 40.3941 22.7471 38.8655 22.0549C37.3368 21.3627 35.6781 21.0047 34 21.0047Z" fill="#00CECC"/>
<path d="M34 21.0047V44.593C37.128 44.593 40.1279 43.3504 42.3397 41.1386C44.5516 38.9267 45.7942 35.9268 45.7942 32.7988C45.7942 29.6708 44.5516 26.6709 42.3397 24.4591C40.1279 22.2473 37.128 21.0047 34 21.0047Z" fill="#00CECC"/>
<path d="M57.2312 33.8007C57.2465 33.2268 57.2624 32.6334 57.2361 32.0118C57.1583 30.2825 56.4142 28.6503 55.1597 27.4574C53.9053 26.2644 52.2378 25.6032 50.5067 25.6123C47.7262 19.2512 41.3744 14.7941 34 14.7941C26.6256 14.7941 20.2738 19.2512 17.4935 25.6123C15.762 25.603 14.094 26.2644 12.8395 27.4579C11.5849 28.6514 10.8411 30.2843 10.7641 32.0142C10.7379 32.6329 10.7537 33.2268 10.769 33.8007C10.7852 34.4101 10.802 35.0404 10.772 35.7469C10.6986 37.5192 11.3305 39.2482 12.5295 40.5554C13.7284 41.8626 15.3965 42.6413 17.1685 42.7209C17.2666 42.7251 17.3644 42.7272 17.4619 42.7273C18.3092 42.7278 19.1489 42.5664 19.9356 42.2519C20.1356 42.1895 20.3191 42.0833 20.4728 41.9409C20.6264 41.7985 20.7463 41.6236 20.8237 41.4289C20.9011 41.2343 20.934 41.0248 20.9201 40.8158C20.9061 40.6068 20.8456 40.4035 20.7431 40.2209C19.4737 37.9532 18.8073 35.3977 18.8078 32.7989C18.8078 24.4219 25.6234 17.6067 34 17.6067C42.3766 17.6067 49.1922 24.4223 49.1922 32.7989C49.2027 36.3448 47.9682 39.7819 45.7042 42.5109C43.4401 45.2399 40.29 47.0877 36.8031 47.7321C36.4359 46.9008 35.7898 46.2238 34.9764 45.8183C34.163 45.4128 33.2335 45.3041 32.3486 45.5112C31.4636 45.7183 30.6788 46.2281 30.1299 46.9524C29.5809 47.6768 29.3022 48.5701 29.342 49.4781C29.3819 50.3861 29.7377 51.2516 30.348 51.9251C30.9583 52.5986 31.7847 53.0377 32.6844 53.1665C33.584 53.2953 34.5005 53.1058 35.2752 52.6306C36.0499 52.1554 36.6343 51.4245 36.9273 50.5641C39.4042 50.1546 41.7683 49.2323 43.8682 47.8564C45.9681 46.4804 47.7575 44.6812 49.1219 42.5737C49.5872 42.6754 50.0621 42.7269 50.5384 42.7272C50.6362 42.7272 50.7343 42.7251 50.8325 42.7209C52.6042 42.641 54.272 41.8623 55.4706 40.5552C56.6693 39.2482 57.3012 37.5194 57.2279 35.7475C57.1981 35.0406 57.2147 34.4103 57.2312 33.8007Z" fill="#2EA8E6"/>
<path d="M57.2312 33.8007C57.2465 33.2268 57.2624 32.6334 57.2361 32.0118C57.1565 30.2399 56.3778 28.5717 55.0704 27.373C53.7631 26.1742 52.0339 25.5426 50.2617 25.6166C49.9551 25.6305 49.6499 25.665 49.348 25.7197C49.1458 25.7557 48.954 25.8354 48.786 25.9534C48.618 26.0714 48.4779 26.2248 48.3754 26.4027C48.273 26.5807 48.2108 26.7789 48.1932 26.9834C48.1755 27.188 48.2029 27.3939 48.2733 27.5867C49.022 29.6421 49.3187 31.8348 49.1432 34.0153C48.9677 36.1957 48.3241 38.3127 47.2562 40.2219C47.1539 40.4045 47.0936 40.6077 47.0798 40.8167C47.066 41.0256 47.099 41.2349 47.1764 41.4295C47.2539 41.624 47.3738 41.7988 47.5274 41.9411C47.681 42.0833 47.8644 42.1895 48.0643 42.2519C48.8512 42.5664 49.691 42.7278 50.5384 42.7272C50.6362 42.7272 50.7343 42.7251 50.8325 42.7209C52.6042 42.641 54.2719 41.8622 55.4706 40.5552C56.6693 39.2482 57.3012 37.5194 57.2279 35.7475C57.198 35.0406 57.2147 34.4102 57.2312 33.8007Z" fill="#002E46"/>
<path d="M48.2855 27.6279C48.281 27.6142 48.278 27.5998 48.2731 27.5864C48.2026 27.3935 48.1753 27.1876 48.1929 26.983C48.2105 26.7785 48.2727 26.5803 48.3752 26.4024C48.4776 26.2244 48.6177 26.0711 48.7858 25.9531C48.9538 25.8351 49.1456 25.7553 49.3477 25.7193C49.6496 25.6646 49.9549 25.6302 50.2614 25.6162C50.3435 25.6127 50.425 25.6125 50.5065 25.6119C47.7262 19.2512 41.3745 14.7942 34 14.7941V17.6066C40.5625 17.6067 46.1656 21.7891 48.2855 27.6279Z" fill="#1794C6"/>
<path d="M20.7431 40.2209C19.6755 38.3117 19.0321 36.1948 18.8567 34.0145C18.6814 31.8341 18.9782 29.6416 19.7269 27.5864C19.7974 27.3935 19.8247 27.1876 19.8071 26.9831C19.7895 26.7785 19.7272 26.5803 19.6248 26.4024C19.5224 26.2244 19.3823 26.0711 19.2142 25.9531C19.0462 25.8351 18.8544 25.7553 18.6523 25.7194C18.3493 25.6645 18.0431 25.63 17.7355 25.6162C15.9633 25.5428 14.2342 26.175 12.9274 27.3743C11.6206 28.5736 10.8426 30.2422 10.7641 32.0142C10.7379 32.6329 10.7537 33.2269 10.769 33.8007C10.7852 34.4101 10.802 35.0404 10.772 35.7469C10.6986 37.5192 11.3305 39.2483 12.5295 40.5554C13.7284 41.8626 15.3965 42.6413 17.1685 42.7209C17.2666 42.7251 17.3644 42.7272 17.4619 42.7273C18.3092 42.7278 19.1489 42.5664 19.9356 42.2519C20.1356 42.1895 20.3191 42.0833 20.4728 41.9409C20.6264 41.7985 20.7463 41.6236 20.8237 41.4289C20.9011 41.2343 20.934 41.0248 20.9201 40.8158C20.9061 40.6068 20.8456 40.4035 20.7431 40.2209Z" fill="#002E46"/>
<path d="M18.8078 32.7988C18.8058 31.0208 19.1168 29.2564 19.7266 27.5863C19.797 27.3934 19.8244 27.1875 19.8067 26.9829C19.7891 26.7784 19.7269 26.5802 19.6245 26.4022C19.522 26.2243 19.3819 26.071 19.2139 25.953C19.0459 25.835 18.8541 25.7552 18.6519 25.7192C18.349 25.6644 18.0427 25.6299 17.7351 25.6161C17.3541 25.6003 16.9725 25.617 16.5943 25.6661C15.6317 27.1184 15.0928 28.8102 15.038 30.5518C15.0089 31.3472 15.0265 32.1094 15.0436 32.8466C15.0617 33.6295 15.0804 34.439 15.0469 35.3464C14.9362 38.3433 16.1792 41.0532 18.1497 42.6906C18.7624 42.6275 19.3635 42.4798 19.9356 42.2516C20.1356 42.1892 20.3191 42.083 20.4728 41.9406C20.6264 41.7982 20.7463 41.6233 20.8237 41.4286C20.9011 41.234 20.934 41.0245 20.9201 40.8155C20.9061 40.6065 20.8457 40.4032 20.7431 40.2206C19.4737 37.9529 18.8074 35.3975 18.8078 32.7988ZM49.1922 32.7988C49.1942 31.0208 48.8832 29.2564 48.2734 27.5863C48.203 27.3934 48.1756 27.1875 48.1933 26.9829C48.2109 26.7784 48.2731 26.5802 48.3755 26.4022C48.478 26.2243 48.6181 26.071 48.7861 25.953C48.9541 25.835 49.146 25.7552 49.3481 25.7192C49.6511 25.6644 49.9574 25.6299 50.265 25.6161C50.646 25.6003 51.0276 25.617 51.4057 25.6661C52.3683 27.1184 52.9072 28.8102 52.962 30.5518C52.9911 31.3472 52.9735 32.1094 52.9564 32.8466C52.9383 33.6295 52.9197 34.439 52.9531 35.3464C53.0645 38.343 51.8216 41.0528 49.8512 42.6905C49.2384 42.6275 48.6373 42.4797 48.0651 42.2515C47.8652 42.1891 47.6816 42.0829 47.528 41.9405C47.3743 41.7981 47.2544 41.6232 47.1771 41.4285C47.0997 41.2339 47.0667 41.0244 47.0807 40.8154C47.0946 40.6064 47.1551 40.4031 47.2577 40.2205C48.5268 37.9528 49.1928 35.3974 49.1922 32.7988Z" fill="#0F4F71"/>
<path d="M29.3149 34.205C28.942 34.2054 28.5841 34.0576 28.3202 33.7941C28.0562 33.5307 27.9077 33.1731 27.9073 32.8002C27.907 32.4272 28.0548 32.0694 28.3182 31.8054C28.5817 31.5414 28.9392 31.3929 29.3122 31.3925H29.3149C29.6879 31.3925 30.0456 31.5407 30.3093 31.8044C30.573 32.0682 30.7212 32.4258 30.7212 32.7988C30.7212 33.1718 30.573 33.5294 30.3093 33.7932C30.0456 34.0569 29.6879 34.205 29.3149 34.205ZM34 34.205C33.9537 34.2051 33.9073 34.2029 33.8612 34.1983C33.8156 34.1938 33.7702 34.1869 33.7253 34.1778C33.6803 34.1684 33.6353 34.1571 33.5912 34.144C33.5473 34.1306 33.5042 34.115 33.4619 34.0971C33.4193 34.0801 33.3776 34.0607 33.3372 34.039C33.2969 34.0175 33.2575 33.9931 33.2191 33.9677C33.1808 33.9424 33.1439 33.9152 33.1084 33.8862C33.0728 33.8571 33.0381 33.8252 33.0053 33.7934C32.9725 33.7616 32.9416 33.7258 32.9125 33.6903C32.8834 33.6548 32.8562 33.6179 32.8309 33.5796C32.8056 33.5412 32.7812 33.5018 32.7597 33.4615C32.7381 33.4212 32.7194 33.379 32.7016 33.3368C32.6837 33.2945 32.6681 33.2514 32.6547 33.2075C32.6416 33.1633 32.6303 33.1183 32.6209 33.0733C32.6116 33.0283 32.605 32.9825 32.6003 32.9375C32.5958 32.8913 32.5936 32.845 32.5937 32.7987C32.5936 32.7527 32.5958 32.7067 32.6003 32.6609C32.605 32.615 32.6125 32.569 32.6209 32.524C32.6294 32.479 32.6416 32.434 32.6547 32.3909C32.6679 32.3466 32.6836 32.3031 32.7016 32.2606C32.7194 32.2184 32.7391 32.1771 32.7597 32.1368C32.7814 32.096 32.8052 32.0562 32.8309 32.0178C32.8562 31.9803 32.8834 31.9428 32.9125 31.9071C32.9416 31.8715 32.9734 31.8368 33.0053 31.804C33.0372 31.7712 33.0728 31.7412 33.1084 31.7113C33.1441 31.6832 33.1806 31.655 33.2191 31.6297C33.2575 31.6044 33.2969 31.581 33.3372 31.5594C33.3775 31.5379 33.4197 31.5182 33.4619 31.5004C33.5042 31.4828 33.5474 31.4675 33.5912 31.4543C33.6793 31.4277 33.7697 31.4095 33.8612 31.4C33.9532 31.3907 34.0459 31.3907 34.1378 31.4C34.1838 31.4041 34.2295 31.4109 34.2747 31.4207C34.3197 31.429 34.3642 31.4403 34.4078 31.4543C34.452 31.4675 34.4955 31.4828 34.5381 31.5004C34.5803 31.5182 34.6216 31.5379 34.6619 31.5594C34.7024 31.5808 34.7418 31.6043 34.78 31.6297C34.8184 31.655 34.8559 31.6832 34.8916 31.7113C34.9272 31.7412 34.9619 31.7722 34.9937 31.804C35.0256 31.8358 35.0575 31.8716 35.0875 31.9071C35.1156 31.9428 35.1437 31.9803 35.1691 32.0178C35.1945 32.0562 35.2179 32.096 35.2394 32.1368C35.2609 32.1771 35.2806 32.2184 35.2984 32.2606C35.3162 32.3028 35.3312 32.3467 35.3453 32.3909C35.3594 32.435 35.3697 32.479 35.3791 32.524C35.3884 32.569 35.395 32.615 35.3997 32.6609C35.4044 32.7068 35.4062 32.7528 35.4062 32.7987C35.4062 32.8446 35.4034 32.8915 35.3997 32.9375C35.3959 32.9834 35.3875 33.0283 35.3791 33.0733C35.3706 33.1183 35.3584 33.1633 35.3453 33.2075C35.3322 33.2516 35.3162 33.2946 35.2984 33.3368C35.2806 33.379 35.2609 33.4212 35.2394 33.4615C35.2178 33.5018 35.1944 33.5412 35.1691 33.5796C35.1437 33.6181 35.1156 33.6546 35.0875 33.6903C35.0575 33.7258 35.0266 33.7606 34.9937 33.7934C34.9609 33.8262 34.9272 33.8571 34.8916 33.8862C34.8557 33.9152 34.8185 33.9424 34.78 33.9677C34.7419 33.9935 34.7024 34.0173 34.6619 34.039C34.6217 34.0607 34.5804 34.0801 34.5381 34.0971C34.4955 34.115 34.452 34.1306 34.4078 34.144C34.3647 34.1571 34.3197 34.1684 34.2747 34.1778C34.2294 34.187 34.1838 34.1939 34.1378 34.1983C34.092 34.2029 34.046 34.2051 34 34.205Z" fill="#E6E9F2"/>
<path d="M35.3792 32.524C35.3698 32.479 35.3585 32.434 35.3454 32.3909C35.3323 32.3478 35.3163 32.3028 35.2985 32.2606C35.2807 32.2184 35.261 32.1771 35.2395 32.1368C35.2181 32.096 35.1946 32.0562 35.1692 32.0178C35.1438 31.9803 35.1157 31.9428 35.0876 31.9071C35.0576 31.8715 35.0267 31.8368 34.9938 31.804C34.961 31.7712 34.9273 31.7413 34.8917 31.7113C34.856 31.6832 34.8185 31.655 34.7801 31.6297C34.7419 31.6043 34.7025 31.5808 34.662 31.5594C34.6217 31.5379 34.5804 31.5182 34.5382 31.5004C34.4956 31.4828 34.4521 31.4675 34.4079 31.4543C34.3643 31.4403 34.3198 31.429 34.2748 31.4207C34.2296 31.4109 34.1839 31.4041 34.1379 31.4C34.0921 31.3953 34.0461 31.393 34 31.393V34.205C34.046 34.2052 34.092 34.203 34.1378 34.1984C34.1838 34.194 34.2295 34.1871 34.2747 34.1779C34.3197 34.1685 34.3647 34.1572 34.4078 34.1441C34.452 34.1307 34.4955 34.1151 34.5381 34.0972C34.5804 34.0802 34.6217 34.0608 34.6619 34.0391C34.7024 34.0174 34.7419 33.9936 34.78 33.9679C34.8184 33.9425 34.8559 33.9153 34.8916 33.8863C34.9272 33.8573 34.9619 33.8253 34.9938 33.7935C35.0256 33.7617 35.0575 33.7259 35.0875 33.6904C35.1156 33.6547 35.1438 33.6182 35.1691 33.5797C35.1944 33.5413 35.2178 33.5019 35.2394 33.4616C35.2609 33.4213 35.2806 33.3791 35.2984 33.3369C35.3163 33.2947 35.3313 33.2507 35.3453 33.2075C35.3594 33.1644 35.3697 33.1184 35.3791 33.0734C35.3884 33.0284 35.395 32.9825 35.3997 32.9375C35.4044 32.8925 35.4062 32.8447 35.4062 32.7988C35.4062 32.7529 35.4034 32.7069 35.3997 32.661C35.3959 32.615 35.3875 32.569 35.3792 32.524ZM38.6875 34.205C38.3145 34.2054 37.9567 34.0576 37.6927 33.7941C37.4288 33.5306 37.2803 33.1731 37.2799 32.8001C37.2796 32.4272 37.4274 32.0693 37.6909 31.8054C37.9544 31.5414 38.3119 31.3929 38.6849 31.3925H38.6875C39.0605 31.3925 39.4181 31.5407 39.6819 31.8044C39.9456 32.0682 40.0938 32.4258 40.0938 32.7988C40.0938 33.1718 39.9456 33.5294 39.6819 33.7932C39.4181 34.0569 39.0605 34.205 38.6875 34.205Z" fill="#CFD7E6"/>
<path d="M34.1408 53.0851C36.236 52.5882 37.5318 50.487 37.0349 48.3918C36.5381 46.2966 34.4369 45.0009 32.3417 45.4977C30.2465 45.9946 28.9508 48.0958 29.4476 50.191C29.9444 52.2862 32.0457 53.5819 34.1408 53.0851Z" fill="#002E46"/>
<path d="M33.2373 45.408V53.2059C34.2714 53.2059 35.2631 52.7951 35.9943 52.0639C36.7255 51.3327 37.1363 50.341 37.1363 49.3069C37.1363 48.2729 36.7255 47.2811 35.9943 46.5499C35.2631 45.8187 34.2714 45.408 33.2373 45.408Z" fill="#0F4F71"/>
<path d="M48.0644 42.2519C47.8794 42.1942 47.7084 42.0989 47.5621 41.9721C47.4157 41.8452 47.2971 41.6895 47.2137 41.5147C47.1304 41.3399 47.084 41.1497 47.0776 40.9561C47.0711 40.7625 47.1048 40.5697 47.1764 40.3897C46.0839 42.2932 44.5901 43.9359 42.7988 45.2039C41.0074 46.4718 38.9615 47.3346 36.8031 47.7321C37.1998 48.6269 37.2441 49.6384 36.9272 50.5644C39.4042 50.1548 41.7683 49.2325 43.8682 47.8565C45.9681 46.4806 47.7575 44.6812 49.1219 42.5737C48.7611 42.4956 48.4074 42.388 48.0644 42.2519Z" fill="#1794C6"/>
</svg>
