<svg width="24" height="24" viewBox="0 0 24 24" fill="none" xmlns="http://www.w3.org/2000/svg">
<g clip-path="url(#clip0_3213_6408)">
<path fill-rule="evenodd" clip-rule="evenodd" d="M24 0H0V24H24V0ZM16.344 10.095C16.344 13.007 14.094 16.364 9.976 16.364C8.76198 16.3655 7.57249 16.0222 6.546 15.374C6.723 15.394 6.901 15.404 7.079 15.404C8.08458 15.4065 9.06248 15.0748 9.859 14.461C9.39493 14.4544 8.9444 14.3036 8.5699 14.0294C8.1954 13.7553 7.9155 13.3714 7.769 12.931C8.10424 12.9945 8.44948 12.9815 8.779 12.893C7.755 12.692 6.984 11.801 6.984 10.733V10.706C7.294 10.876 7.642 10.97 7.998 10.981C7.69269 10.7821 7.44174 10.5103 7.26785 10.1901C7.09395 9.86987 7.00258 9.51138 7.002 9.147C7.002 8.758 7.106 8.377 7.305 8.04C7.87186 8.72306 8.57481 9.28053 9.36904 9.67687C10.1633 10.0732 11.0314 10.2997 11.918 10.342C11.8791 10.1772 11.8596 10.0084 11.86 9.839C11.86 8.623 12.863 7.637 14.099 7.637C14.742 7.637 15.324 7.904 15.732 8.333C16.2327 8.23594 16.7135 8.05506 17.154 7.798C16.9847 8.31029 16.6345 8.74331 16.169 9.016C16.6121 8.96476 17.0451 8.84816 17.454 8.67C17.1527 9.1133 16.7748 9.49934 16.338 9.81C16.343 9.905 16.344 10 16.344 10.095Z" fill="white"/>
</g>
<defs>
<clipPath id="clip0_3213_6408">
<rect width="24" height="24" rx="12" fill="white"/>
</clipPath>
</defs>
</svg>
